<svg xmlns="http://www.w3.org/2000/svg" width="28" height="28" fill="none"><path fill="#fff" d="M21.745 15.57c-.404-.51-.289-.737 0-1.193.005-.005 3.342-4.616 3.685-6.18h.002c.171-.57 0-.989-.826-.989h-2.733c-.696 0-1.017.36-1.189.761 0 0-1.391 3.332-3.36 5.491-.636.624-.93.824-1.276.824-.17 0-.436-.2-.436-.77V8.197c0-.684-.195-.989-.771-.989h-4.298c-.437 0-.696.319-.696.616 0 .648.984.797 1.086 2.62v3.955c0 .866-.157 1.026-.506 1.026-.93 0-3.184-3.345-4.52-7.173-.27-.743-.534-1.043-1.235-1.043H1.938c-.78 0-.938.36-.938.762 0 .71.93 4.242 4.32 8.909 2.261 3.185 5.445 4.911 8.34 4.911 1.741 0 1.954-.383 1.954-1.042 0-3.044-.158-3.332.714-3.332.404 0 1.1.2 2.725 1.737 1.857 1.822 2.163 2.637 3.202 2.637h2.733c.78 0 1.175-.383.947-1.14-.52-1.59-4.032-4.862-4.19-5.08"/></svg>