<svg xmlns="http://www.w3.org/2000/svg" width="54" height="54" fill="none"><path fill="#fff" d="M42.557 5.075v43.85a3.25 3.25 0 0 1-3.249 3.248H8.971a3.25 3.25 0 0 1-3.248-3.248V5.075A3.25 3.25 0 0 1 8.97 1.827h30.338a3.25 3.25 0 0 1 3.248 3.248"/><path fill="#F6F6F6" d="M25.652 48.051a1.512 1.512 0 1 1-3.027 0c0-.837.679-1.516 1.516-1.516s1.511.68 1.511 1.516"/><path fill="#495CEE" d="M27.032 13.217a2.892 2.892 0 1 1-2.894-2.895 2.9 2.9 0 0 1 2.894 2.895M18.66 24.946c0-3.82 2.449-6.926 5.474-6.926s5.487 3.107 5.487 6.926z"/><path fill="#34BBDA" d="M48.278 13.866a5.716 5.716 0 0 1-5.717 5.725 5.72 5.72 0 0 1-5.725-5.725A5.717 5.717 0 0 1 42.56 8.15a5.715 5.715 0 0 1 5.717 5.717"/><path fill="#2C2C2C" d="M30.078 5.381h.88a.61.61 0 0 0 0-1.218h-.88a.61.61 0 0 0 0 1.218M17.32 5.381h9.64a.61.61 0 0 0 0-1.218h-9.64a.61.61 0 0 0 0 1.218M24.14 45.927a2.127 2.127 0 0 0-2.124 2.124c0 1.172.953 2.125 2.125 2.125a2.125 2.125 0 0 0 0-4.25m0 3.031a.908.908 0 0 1 0-1.814c.498 0 .903.407.903.907s-.405.907-.902.907M24.137 9.713a3.5 3.5 0 1 0 3.504 3.503 3.51 3.51 0 0 0-3.504-3.503m0 5.783a2.281 2.281 0 1 1 .006-4.563 2.281 2.281 0 0 1-.006 4.563M18.05 24.945c0 .337.273.61.61.61h10.976a.61.61 0 0 0 .592-.755c-.063-4.088-2.772-7.389-6.094-7.389-3.355 0-6.083 3.38-6.083 7.534m10.939-.609H19.29c.237-3.198 2.318-5.707 4.843-5.707 2.53 0 4.618 2.51 4.855 5.707M12.886 30.572h22.502a.61.61 0 0 0 0-1.218H12.886a.61.61 0 0 0 0 1.218M12.886 36.156h22.502a.61.61 0 0 0 0-1.218H12.886a.61.61 0 0 0 0 1.218M29.72 40.523H18.563a.61.61 0 0 0 0 1.218h11.159a.61.61 0 0 0 0-1.218"/><path fill="#2C2C2C" d="M5.113 5.075v43.85a3.86 3.86 0 0 0 3.857 3.857h30.338a3.86 3.86 0 0 0 3.857-3.857V20.169a6.34 6.34 0 0 0 5.72-6.303c0-3.284-2.515-5.99-5.72-6.295V5.075a3.86 3.86 0 0 0-3.857-3.857H8.97a3.86 3.86 0 0 0-3.857 3.857M42.56 8.76a5.113 5.113 0 0 1 5.108 5.107 5.12 5.12 0 0 1-5.108 5.116 5.12 5.12 0 0 1-5.116-5.116A5.117 5.117 0 0 1 42.56 8.76M6.331 5.075a2.64 2.64 0 0 1 2.64-2.639h30.337a2.64 2.64 0 0 1 2.639 2.64v2.496c-3.206.309-5.72 3.013-5.72 6.294 0 3.286 2.514 5.993 5.72 6.303v28.756a2.64 2.64 0 0 1-2.64 2.639H8.97a2.64 2.64 0 0 1-2.639-2.64z"/><path fill="#fff" d="M41.242 15.81a.61.61 0 0 0 .861 0l3.02-3.02a.609.609 0 1 0-.86-.86l-2.59 2.589-.825-.824a.609.609 0 1 0-.861.861z"/></svg>