<svg xmlns="http://www.w3.org/2000/svg" width="32" height="32" fill="none"><g fill="#fff" clip-path="url(#a)"><path d="M30.27 16c0-1.233-.156-2.453-.467-3.635l1.806-1.329-3.506-6.072-2.057.901a14.17 14.17 0 0 0-6.293-3.636L19.506 0h-7.012l-.248 2.229a14.17 14.17 0 0 0-6.293 3.636l-2.057-.901-3.505 6.072 1.806 1.329A14.3 14.3 0 0 0 1.729 16c0 1.233.157 2.453.468 3.635L.39 20.964l3.505 6.072 2.057-.901a14.17 14.17 0 0 0 6.293 3.636L12.494 32h7.012l.247-2.229a14.17 14.17 0 0 0 6.293-3.636l2.057.901 3.506-6.072-1.806-1.329c.31-1.182.468-2.402.468-3.635M18.692 28.102l-.655.145-.209 1.878h-3.655l-.208-1.878-.655-.145a12.32 12.32 0 0 1-6.442-3.722l-.454-.494-1.732.76-1.827-3.166 1.52-1.119-.201-.639A12.4 12.4 0 0 1 3.604 16c0-1.27.192-2.522.569-3.722l.2-.64-1.52-1.118 1.828-3.165 1.732.759.454-.494a12.32 12.32 0 0 1 6.442-3.722l.655-.145.208-1.878h3.656l.208 1.878.655.145a12.32 12.32 0 0 1 6.442 3.722l.454.494 1.732-.76 1.827 3.166-1.52 1.119.201.639c.377 1.2.569 2.453.569 3.722s-.192 2.522-.569 3.722l-.201.64 1.52 1.118-1.827 3.165-1.732-.759-.454.494a12.32 12.32 0 0 1-6.442 3.722"/><path d="m12.276 13.854-1.34-1.312-3.428 3.501 3.501 3.429 1.312-1.34-2.162-2.117zM19.724 13.854l2.117 2.161-2.161 2.117 1.312 1.34 3.5-3.429-3.428-3.501zM13.758 22.136l2.666-12.672 1.836.386-2.667 12.672z"/></g><defs><clipPath id="a"><path fill="#fff" d="M0 0h32v32H0z"/></clipPath></defs></svg>