<svg xmlns="http://www.w3.org/2000/svg" width="31" height="31" fill="none"><g fill="#fff" clip-path="url(#a)"><path d="M15.5 0C6.94 0 0 6.94 0 15.5S6.94 31 15.5 31 31 24.06 31 15.5C30.99 6.944 24.057.01 15.5 0m0 29.855c-7.928 0-14.355-6.427-14.355-14.355S7.572 1.145 15.5 1.145 29.855 7.572 29.855 15.5c-.01 7.924-6.43 14.346-14.355 14.355"/><path d="M18.332 17.492a5.3 5.3 0 0 0-1.053-1.11c-.573-.487-.968-.813-1.294-3.687-.137-1.202-.4-2.427-1.31-2.427s-1.466 1.305-1.861 2.416q-.071.126-.172.229a1.8 1.8 0 0 1-.309-.572l-.12-.287-.303-.057a3.6 3.6 0 0 0-.636-.052A3.27 3.27 0 0 0 8.63 13.21a1 1 0 0 1-.607.15.8.8 0 0 0-.292-.058c-.572 0-.755.527-.887.87-.229.572-.366.79-.75.79a2.73 2.73 0 0 0-2.29 1.087 2.47 2.47 0 0 0-.188 2.313l.126.326c.46 1.014.709 2.11.732 3.223a1.37 1.37 0 0 0 1.414 1.413c1.145 0 2.639-1.064 3.532-2.117.216-.302.557-.49.927-.51a1.9 1.9 0 0 1 1.38.893c.326.698 2.232 2.072 3.754 2.072a2.3 2.3 0 0 0 1.025-.229 4.84 4.84 0 0 0 2.238-3.045 3.5 3.5 0 0 0-.412-2.896m-.704 2.587-.006.023a3.75 3.75 0 0 1-1.643 2.29 1.15 1.15 0 0 1-.515.108 4.44 4.44 0 0 1-2.719-1.414 2.99 2.99 0 0 0-2.398-1.534 2.32 2.32 0 0 0-1.797.922c-.899 1.059-2.078 1.717-2.656 1.717-.143 0-.246 0-.27-.343a9.4 9.4 0 0 0-.806-3.56l-.126-.327a1.35 1.35 0 0 1 .057-1.282 1.6 1.6 0 0 1 1.34-.572 1.96 1.96 0 0 0 1.814-1.528v-.075c.499.016.99-.122 1.408-.395l.086-.057.063-.086a2.1 2.1 0 0 1 1.797-.83h.138c.2.528.68.898 1.242.956.732 0 1.144-.784 1.219-.939v-.057c.178-.531.42-1.039.72-1.511q.188.61.241 1.248c.36 3.165.882 3.749 1.718 4.43.32.253.602.552.835.887.356.577.45 1.279.258 1.929M13.41 24.086l-.097-.183-.212-.08a2.9 2.9 0 0 0-.921-.16c-.427-.012-.84.151-1.145.451-.33.38-.488.88-.435 1.38.04 1.001.658 1.356 1.145 1.356a1.96 1.96 0 0 0 1.534-.967 1.8 1.8 0 0 0 .131-1.797m-1.099 1.185a.93.93 0 0 1-.572.429.7.7 0 0 1-.046-.258.78.78 0 0 1 .115-.544.5.5 0 0 1 .343-.097q.132-.01.263 0a.78.78 0 0 1-.108.47zM18.79 7.63c-.281-.767-1.346-1.122-2.05-1.288a1.9 1.9 0 0 0-.4-.933c-.515-.641-1.431-.979-2.73-.99a4.28 4.28 0 0 0-2.485-1.048 2.39 2.39 0 0 0-1.957 1.042 1.66 1.66 0 0 0-.344 1.774c.43.899 1.786 1.145 2.456 1.214a2.55 2.55 0 0 0 2.015 1.328c.334-.004.661-.088.956-.246.538.475 1.602 1.282 2.678 1.282a1.92 1.92 0 0 0 1.471-.67 1.39 1.39 0 0 0 .39-1.465m-1.237.715v-.017a.77.77 0 0 1-.612.286c-.807 0-1.86-.904-2.192-1.253a.57.57 0 0 0-.756-.057c-.19.166-.43.264-.681.28-.664 0-1.145-.967-1.145-.973a.57.57 0 0 0-.492-.326c-.733-.035-1.654-.28-1.797-.573-.052-.114.034-.337.229-.572a1.24 1.24 0 0 1 1.036-.572c.705.089 1.363.402 1.877.892a.57.57 0 0 0 .4.155h.11c.944 0 1.625.195 1.917.572.132.16.193.367.172.573a.57.57 0 0 0 .452.647c.738.097 1.55.412 1.63.63.03.022.018.12-.148.308M26.84 20.05c-.309-.956-.812-1.144-1.179-1.144a1.65 1.65 0 0 0-1.265.933q-.6.732-1.322 1.345H22.05a.572.572 0 0 0-.573.63l.115 1.11-.996 1.001a.57.57 0 0 0-.166.418c.033.84.742 1.494 1.582 1.461l.026-.001c.293-.005.584-.051.864-.138a.6.6 0 0 0 .184-.091c.744-.573 4.419-3.475 3.755-5.524M22.48 24.6a1.8 1.8 0 0 1-.44.064.46.46 0 0 1-.413-.172l.973-.979a.57.57 0 0 0 .166-.463l-.08-.75h.607c.139 0 .273-.051.377-.143a12 12 0 0 0 1.712-1.729l-.006-.017q.104-.17.24-.315.084.15.132.315c.298.921-1.717 3.016-3.268 4.19"/></g><defs><clipPath id="a"><path fill="#fff" d="M0 0h31v31H0z"/></clipPath></defs></svg>