<svg xmlns="http://www.w3.org/2000/svg" width="32" height="32" fill="none"><path fill="#fff" d="M27.67 8h-6.34c.42-.558.673-1.25.673-2a3.337 3.337 0 0 0-3.334-3.333c-1.09 0-2.058.529-2.666 1.342a3.33 3.33 0 0 0-2.667-1.342A3.337 3.337 0 0 0 10.003 6c0 .75.252 1.442.673 2h-6.34c-1.103 0-2 .897-2 2v2.667c0 .869.558 1.608 1.333 1.883v12.783c0 1.103.897 2 2 2h20.667c1.103 0 2-.897 2-2V14.55a2 2 0 0 0 1.333-1.883V10c0-1.103-.897-2-2-2m-13.667 5.333v-4h4v4zm4 1.334V28h-4V14.667zM18.669 4c1.103 0 2 .897 2 2s-.897 2-2 2h-2V6c0-1.103.897-2 2-2m-7.333 2c0-1.103.897-2 2-2s2 .897 2 2v2h-2c-1.103 0-2-.897-2-2m-7.667 4c0-.368.3-.667.667-.667h8.333v4H4.336a.667.667 0 0 1-.667-.666zm1.334 17.333V14.667h7.666V28h-7a.667.667 0 0 1-.666-.667M26.336 28h-7V14.667h7.667v12.666a.667.667 0 0 1-.667.667m2-15.333a.667.667 0 0 1-.667.666h-8.333v-4h8.333c.368 0 .667.3.667.667z"/></svg>