<svg xmlns="http://www.w3.org/2000/svg" width="30" height="30" fill="none"><g fill="#fff" clip-path="url(#a)"><path d="M25.625 6.25A3.13 3.13 0 0 1 22.5 3.125 3.13 3.13 0 0 1 25.625 0a3.13 3.13 0 0 1 3.125 3.125 3.13 3.13 0 0 1-3.125 3.125m0-5a1.877 1.877 0 0 0-1.875 1.875c0 1.034.841 1.875 1.875 1.875A1.877 1.877 0 0 0 27.5 3.125a1.877 1.877 0 0 0-1.875-1.875"/><path d="M29.375 7.5a.63.63 0 0 1-.442-.183l-1.875-1.875a.626.626 0 0 1 .884-.883l1.875 1.875a.626.626 0 0 1-.442 1.066M18.125 7.5H1.875A1.877 1.877 0 0 1 0 5.625v-3.75C0 .841.841 0 1.875 0h16.25C19.159 0 20 .841 20 1.875v3.75A1.877 1.877 0 0 1 18.125 7.5M1.875 1.25a.627.627 0 0 0-.625.625v3.75c0 .344.281.625.625.625h16.25a.627.627 0 0 0 .625-.625v-3.75a.627.627 0 0 0-.625-.625zM3.75 30A3.755 3.755 0 0 1 0 26.25a3.755 3.755 0 0 1 3.75-3.75 3.755 3.755 0 0 1 3.75 3.75A3.755 3.755 0 0 1 3.75 30m0-6.25a2.5 2.5 0 0 0-2.5 2.5c0 1.379 1.121 2.5 2.5 2.5s2.5-1.121 2.5-2.5-1.121-2.5-2.5-2.5M6.875 16.25H.625a.625.625 0 0 1 0-1.25h6.25a.625.625 0 0 1 0 1.25M6.875 20H.625a.625.625 0 0 1 0-1.25h6.25a.625.625 0 0 1 0 1.25M6.875 12.5H.625a.625.625 0 0 1 0-1.25h6.25a.625.625 0 0 1 0 1.25M28.125 30h-16.25A1.877 1.877 0 0 1 10 28.125v-16.25c0-1.034.841-1.875 1.875-1.875h16.25c1.034 0 1.875.841 1.875 1.875v16.25A1.877 1.877 0 0 1 28.125 30m-16.25-18.75a.627.627 0 0 0-.625.625v16.25c0 .344.281.625.625.625h16.25a.627.627 0 0 0 .625-.625v-16.25a.627.627 0 0 0-.625-.625z"/><path d="M20 18.75a1.877 1.877 0 0 1-1.875-1.875c0-1.034.841-1.875 1.875-1.875s1.875.841 1.875 1.875A1.877 1.877 0 0 1 20 18.75m0-2.5a.627.627 0 0 0-.625.625c0 .344.281.625.625.625a.627.627 0 0 0 .625-.625.627.627 0 0 0-.625-.625M23.125 23.75a.625.625 0 0 1-.625-.625V22.5c0-.69-.56-1.25-1.25-1.25h-2.5c-.69 0-1.25.56-1.25 1.25v.625a.625.625 0 0 1-1.25 0V22.5c0-1.379 1.121-2.5 2.5-2.5h2.5c1.379 0 2.5 1.121 2.5 2.5v.625c0 .345-.28.625-.625.625"/></g><defs><clipPath id="a"><path fill="#fff" d="M0 0h30v30H0z"/></clipPath></defs></svg>