<svg xmlns="http://www.w3.org/2000/svg" width="79" height="38" fill="none"><g fill="#fff" opacity=".5"><path d="m2.552 12.887 1.208-.537 1.208 2.819-1.208.671a67 67 0 0 0-1.208-2.953m2.953 5.638 1.208-.671c.537.805 1.074 1.745 1.746 2.55l-1.074.806a16.3 16.3 0 0 1-1.88-2.685m3.625 5.101 1.074-.94c.67.806 1.342 1.477 2.147 2.282l-.94.94c-.805-.671-1.476-1.477-2.281-2.282m4.564 4.43.805-1.074c.806.671 1.611 1.342 2.417 1.88l-.806 1.073c-.671-.537-1.61-1.208-2.416-1.88m5.235 3.624.671-1.208c.94.537 1.745 1.074 2.685 1.477l-.537 1.208c-.94-.403-1.88-.94-2.819-1.477m5.638 2.82.537-1.209c.94.403 1.88.672 2.953.94l-.402 1.342c-1.074-.268-2.014-.67-3.088-1.074m6.175 1.879.269-1.343c.402.135.67.135 1.074.135.67.134 1.342.134 2.013.268l-.134 1.343c-.671-.135-1.343-.135-2.014-.269-.537 0-.94-.134-1.208-.134m6.31.67v-1.341h.805c.805 0 1.477 0 2.282-.135l.134 1.343c-.805 0-1.61.134-2.416.134zm6.04-1.744c.94-.134 2.014-.403 2.953-.537l.269 1.342c-1.074.269-2.148.403-3.088.537zm6.04-1.477c.94-.268 1.88-.671 2.82-1.074l.537 1.208c-.94.403-2.014.806-2.953 1.074zm5.639-2.282c.94-.403 1.88-.94 2.685-1.476l.67 1.208c-.939.537-1.878 1.074-2.818 1.476zm5.235-3.087c.806-.537 1.611-1.209 2.417-1.88l.94 1.074c-.806.671-1.612 1.343-2.551 2.014zm4.564-4.027c.672-.672 1.343-1.477 2.014-2.283l1.074.806c-.671.805-1.343 1.61-2.148 2.416zm3.893-4.699c.537-.805 1.074-1.745 1.611-2.55l1.208.67c-.537.94-1.074 1.88-1.745 2.685zm3.222-5.37c.403-.94.94-1.879 1.342-2.818l1.209.537c-.403.94-.94 1.879-1.343 2.818zm2.416-5.637c.403-.94.672-1.88 1.074-2.954l1.343.403c-.403.94-.671 2.014-1.074 2.953zm2.148-5.773c.269-.94.671-2.013.94-2.953l1.342.403c-.268.94-.67 2.013-.94 2.953z"/><path d="m.001 18.928 1.208.402 2.282-6.309 6.175 2.685.537-1.208-7.517-3.222z"/></g></svg>