<svg xmlns="http://www.w3.org/2000/svg" viewBox="0 0 230 28" fill="none">
  <path fill="#fff" d="M30.44 1.24a2.16 2.16 0 0 0-2.14 2.17v19.07h-9.43V1.24h-2.56a2.16 2.16 0 0 0-2.14 2.17v19.07H4.7V1.24H2.14A2.15 2.15 0 0 0 0 3.4v23.83h31a2 2 0 0 0 2-2v-24Zm26.5 4.83-8.41 19.78a2.28 2.28 0 0 1-2.09 1.39H43l11.62-26h4.72l11.66 26h-3.52a2.27 2.27 0 0 1-2.09-1.38Zm33.06 10.29-4.17 4.23v6.65H81v-26h4.87v13.33l13-13.33h5.47l-11 11.63L105 27.24h-4.35a2.91 2.91 0 0 1-2.22-1Zm26-15.12h17.32a2.15 2.15 0 0 1 2.15 2.15v1.9h-17.32a2.15 2.15 0 0 1-1.986-1.327A2.2 2.2 0 0 1 116 3.14Zm0 21.95h17.85a2.15 2.15 0 0 1 2.15 2.15v1.9h-17.85A2.16 2.16 0 0 1 116 25.1v-1.91Z"/>
  <path fill="#34bbda" d="M116 12h15.68a2.15 2.15 0 0 1 2.15 2.15V16h-15.68a2.15 2.15 0 0 1-2.15-2.12Z"/>
  <path fill="#fff" d="M146 14.23c0-7.55 5.64-13 13.23-13A12.35 12.35 0 0 1 169 5.46L167.4 7a2 2 0 0 1-2.61.15 8.83 8.83 0 0 0-14.17 7.08 8.553 8.553 0 0 0 8.18 8.89h.64a8.4 8.4 0 0 0 5.34-1.81 2 2 0 0 1 2.63.15L169 23a12.44 12.44 0 0 1-9.81 4.22c-7.55.01-13.19-5.44-13.19-12.99Z"/>
  <path fill="#34bbda" d="M206.09 12.4c0 1.26-.79 2-2.32 2h-2v-4h2c1.53.01 2.32.74 2.32 2Zm-12.24-1.84h-2.08v4h2.08c1.56 0 2.36-.73 2.36-2s-.8-2-2.36-2ZM230 10v16.5a1.5 1.5 0 0 1-1.5 1.5H190a10 10 0 0 1-10-10V1.5A1.5 1.5 0 0 1 181.5 0H220a10 10 0 0 1 10 10Zm-32 2.55c0-2.22-1.56-3.56-4.07-3.56H190V19h1.77v-2.9h2.16c2.51 0 4.07-1.35 4.07-3.55Zm10 6.29-2.15-3.28a3.22 3.22 0 0 0 2-3.16c0-2.21-1.53-3.56-4-3.56H200v10h1.74v-2.91h2.47l1.92 2.93Zm12-5a5.3 5.3 0 0 0-3.272-4.897A5.299 5.299 0 1 0 220 13.84Zm-5.3-3.62a3.44 3.44 0 0 0-3.46 3.42 1.3 1.3 0 0 0 0 .2 3.463 3.463 0 0 0 3.46 3.46 3.46 3.46 0 0 0 3.46-3.46 3.44 3.44 0 0 0-3.26-3.62Z"/>
</svg>
