<svg width="481" height="325" viewBox="0 0 481 325" fill="none" xmlns="http://www.w3.org/2000/svg">
<path d="M0.214076 64.4159C0.214076 64.4159 42.2822 56.2453 53.4628 59.5291C64.5544 62.8428 42.8069 71.3272 54.7379 76.0009C66.6688 80.6746 75.8192 82.2575 111.948 74.6022C148.155 66.9734 146.686 65.4016 209.961 53.114C273.069 40.8299 285.267 37.5723 317.209 44.7302C349.151 51.8882 329.586 69.0686 293.773 90.6578C258.048 112.217 233.562 123.371 237.334 130.208C241.185 137.071 258.494 131.882 278.615 130.991C298.904 130.097 311.575 126.998 323.506 131.672C335.437 136.346 352.347 133.357 397.595 126.077C442.842 118.796 468.309 106.835 479.202 113.553C490.183 120.242 497.271 114.307 461.389 140.422C425.586 166.564 418.697 169.095 414.222 182.733" stroke="white" stroke-width="0.635" stroke-miterlimit="10"/>
<path d="M1.69307 64.0766C1.69307 64.0766 43.4259 55.9129 54.7056 59.1103C65.8964 62.3377 44.5936 70.6724 56.4561 75.2632C67.6203 79.5591 76.3566 81.1224 106.557 75.3032C108.808 74.8635 111.148 74.3939 113.577 73.8944C149.665 66.4648 147.909 65.0956 210.472 53.0475C272.957 40.9728 285.323 37.7118 316.94 44.8202C322.72 46.1069 326.851 47.7366 329.422 49.6793C339.422 57.1751 327.237 69.117 305.097 83.4554C301.602 85.6913 297.919 88.0434 293.9 90.4024C258.552 111.729 234.322 122.85 238.173 129.713C242.024 136.576 259.323 131.443 279.533 130.523C298.392 129.686 310.834 126.929 322.23 130.406C322.938 130.644 323.726 130.909 324.513 131.174C336.543 135.761 353.71 132.739 398.612 125.522C406.607 124.262 413.962 122.846 420.646 121.444C452.075 114.841 470.795 107.852 479.555 113.434C487.942 118.77 493.658 116.264 479.258 127.521C475.264 130.666 470.111 134.679 462.314 140.375C427.045 166.338 420.056 168.955 415.523 182.454" stroke="white" stroke-width="0.635" stroke-miterlimit="10"/>
<path d="M4.61515 63.6231C4.61515 63.6231 46.1803 55.4628 57.4703 58.6038C68.6815 61.7184 47.6455 69.9633 59.6071 74.4678C70.7918 78.6508 79.6171 80.1842 109.63 74.4813C111.792 74.0715 114.132 73.6019 116.561 73.1024C152.539 65.8156 150.485 64.7054 212.348 52.8403C274.21 40.9752 286.655 37.7407 318.035 44.7696C323.815 46.0563 327.868 47.6595 330.36 49.5757C340.281 57.045 328.284 68.8706 306.411 83.1193C302.916 85.3551 299.322 87.6773 295.392 90.0064C260.409 111.157 236.447 122.188 240.387 129.021C244.248 135.828 261.526 130.808 281.736 129.887C300.595 129.051 313.037 126.294 324.444 129.714C325.152 129.952 325.86 130.19 326.648 130.455C338.945 134.953 356.211 131.844 400.835 124.774C408.83 123.513 416.175 122.154 422.939 120.779C454.336 114.345 472.623 107.449 481.283 113.117C489.403 118.544 494.695 116.074 481.055 127.287C477.139 130.459 472.588 134.375 464.87 140.098C430.134 165.881 423.057 168.528 418.455 181.944" stroke="white" stroke-width="0.635" stroke-miterlimit="10"/>
<path d="M8.72562 63.0891C8.72562 63.0891 49.9555 54.9357 61.3446 57.9904C72.655 61.0186 51.9748 69.1438 63.9568 73.5354C75.1517 77.662 84.0761 79.109 113.901 73.5224C116.063 73.1127 118.481 72.6696 120.821 72.2C156.602 65.0858 154.261 64.1783 215.579 52.5492C276.73 40.9235 289.431 37.6556 320.565 44.6615C326.267 45.9217 330.319 47.5249 332.811 49.4412C342.654 56.8839 330.835 68.6497 309.238 82.7521C305.832 84.958 302.159 87.2537 298.309 89.6093C263.781 110.554 239.996 121.525 244.015 128.385C247.965 135.161 265.144 130.228 285.354 129.307C304.045 128.474 316.566 125.744 328.072 129.077C328.869 129.286 329.577 129.524 330.276 129.819C342.672 134.23 360.116 131.062 404.474 124.081C412.469 122.82 419.892 121.488 426.567 120.142C457.845 113.907 475.864 107.102 484.179 112.833C492.033 118.349 496.91 115.86 483.852 127.089C480.094 130.314 475.987 134.08 468.338 139.886C434.135 165.49 426.88 168.196 422.21 181.53" stroke="white" stroke-width="0.635" stroke-miterlimit="10"/>
<path d="M14.1916 62.4146C14.1916 62.4146 55.1649 54.2946 66.5744 57.2364C77.9053 60.1517 57.5807 68.1573 69.573 72.4924C80.8671 76.5327 89.8017 77.9233 119.438 72.453C121.6 72.0432 123.93 71.63 126.359 71.1305C162.019 64.2156 159.391 63.5107 219.998 52.121C280.447 40.6784 293.307 37.4635 324.294 44.3599C329.995 45.6201 333.968 47.1968 336.461 49.1131C346.224 56.5293 334.672 68.2053 313.264 82.1915C309.858 84.3974 306.274 86.6632 302.512 88.9888C268.439 109.727 244.832 120.639 248.94 127.468C252.979 134.215 269.98 129.341 290.269 128.447C308.881 127.588 321.392 124.914 332.997 128.161C333.794 128.369 334.414 128.638 335.29 128.873C348.397 133.044 365.485 129.996 409.409 123.108C417.404 121.848 424.739 120.545 431.403 119.256C462.483 113.194 480.314 106.504 488.362 112.325C496.038 117.901 500.402 115.479 487.935 126.668C484.335 129.946 480.841 133.559 473.103 139.395C439.434 164.819 432.169 167.582 427.351 180.806" stroke="white" stroke-width="0.635" stroke-miterlimit="10"/>
<path d="M20.6752 61.6636C20.6752 61.6636 61.3132 53.5504 72.733 56.4358C84.0843 59.2383 64.1942 67.1506 76.207 71.3729C87.4325 75.3303 96.545 76.6611 125.904 71.3369C128.067 70.9272 130.396 70.514 132.815 70.0709C168.356 63.3552 165.529 62.823 225.425 51.6727C285.252 40.4396 298.278 37.2212 328.94 44.0682C334.563 45.3019 338.536 46.8786 341.029 48.7948C350.714 56.1846 339.26 67.7743 318.208 81.6407C314.891 83.8167 311.307 86.0824 307.545 88.4081C273.927 108.94 250.577 119.819 254.684 126.648C258.812 133.365 275.803 128.548 296.014 127.627C314.537 126.797 327.136 124.094 338.752 127.284C339.549 127.493 340.257 127.731 341.044 127.996C354.429 132.021 371.606 128.943 415.174 122.175C423.169 120.915 430.494 119.668 437.236 118.406C468.286 112.513 485.761 105.943 493.543 111.854C500.951 117.52 504.891 115.134 493.184 126.28C489.663 129.584 486.771 133.1 479.022 138.993C445.976 164.207 438.533 167.03 433.646 180.171" stroke="white" stroke-width="0.635" stroke-miterlimit="10"/>
<path d="M28.2584 60.8051C28.2584 60.8051 68.6398 52.7253 80.08 55.4978C91.4415 58.2439 71.6404 66.1263 84.0293 70.116C95.6208 73.8973 104.566 75.2314 133.727 70.08C135.968 69.6968 138.13 69.287 140.548 68.8439C175.891 62.3009 172.856 61.9978 232.129 51.0571C291.244 40.0634 304.438 36.8416 334.864 43.6091C340.487 44.8428 344.46 46.4195 346.874 48.3092C356.48 55.6725 345.205 67.2023 324.43 80.9225C321.112 83.0985 317.617 85.3343 313.944 87.63C280.781 107.956 257.609 118.775 261.805 125.574C266.022 132.261 282.914 127.53 303.124 126.61C321.569 125.753 334.08 123.08 345.873 126.21C346.67 126.419 347.378 126.657 348.166 126.922C361.817 130.858 379.004 127.723 422.384 121.071C430.458 119.837 437.782 118.591 444.436 117.358C475.287 111.638 492.585 105.128 500.099 111.129C507.33 116.855 510.924 114.533 499.642 125.641C496.189 129.028 493.909 132.391 486.239 138.31C453.726 163.345 446.184 166.254 441.24 179.256" stroke="white" stroke-width="0.635" stroke-miterlimit="10"/>
<path d="M36.6922 59.873C36.6922 59.873 76.7383 51.8001 88.3564 54.5128C99.7383 57.146 80.2929 64.9086 92.6921 68.842C104.383 72.5369 113.338 73.8146 142.311 68.7794C144.552 68.3962 146.792 68.013 149.211 67.5699C184.523 61.1961 181.023 61.1555 239.594 50.3978C298.166 39.6401 311.449 36.3884 341.55 43.1063C347.094 44.3135 351.067 45.8902 353.402 47.7535C362.93 55.0903 351.843 66.5038 331.334 80.1342C328.106 82.2803 324.611 84.5161 320.938 86.8118C288.23 106.932 265.146 117.72 269.51 124.517C273.727 131.204 290.609 126.529 310.819 125.608C329.175 124.782 341.774 122.078 353.577 125.153C354.375 125.361 355.083 125.599 355.881 125.808C369.087 129.893 387.075 126.489 430.109 119.9C438.094 118.697 445.497 117.477 452.151 116.244C482.804 110.697 499.913 104.303 507.161 110.394C514.125 116.209 517.295 113.924 506.683 125.018C503.388 128.459 501.642 131.642 493.872 137.648C461.815 162.476 454.262 165.442 449.16 178.391" stroke="white" stroke-width="0.635" stroke-miterlimit="10"/>
<path d="M46.0527 58.9507C46.0527 58.9507 85.7635 50.8846 97.4807 53.511C108.962 56.0579 90.139 63.611 102.292 67.5213C113.726 71.2495 123.047 72.3511 151.832 67.4323C153.984 67.079 156.313 66.6658 158.643 66.2526C193.757 60.0515 190.048 60.2401 247.997 49.6919C305.857 39.1737 319.308 35.9185 349.173 42.5569C354.716 43.7642 358.611 45.3144 360.946 47.1776C370.395 54.4879 359.407 65.8151 339.254 79.3258C336.026 81.4718 332.62 83.6777 328.947 85.9734C296.605 105.917 273.788 116.616 278.241 123.382C282.547 130.039 299.33 125.451 319.54 124.531C337.817 123.678 350.406 121.03 362.308 124.018C363.106 124.227 363.814 124.465 364.611 124.674C378.006 128.643 396.172 125.179 438.85 118.71C446.835 117.506 454.317 116.313 460.872 115.166C491.405 109.818 508.248 103.514 515.15 109.668C521.847 115.573 524.593 113.325 514.662 124.349C511.523 127.843 510.301 130.903 502.61 136.935C471.086 161.584 463.524 164.606 458.274 177.445" stroke="white" stroke-width="0.635" stroke-miterlimit="10"/>
<path d="M56.2521 57.9542C56.2521 57.9542 95.7063 49.9216 107.444 52.4351C118.946 54.8691 100.478 62.3025 112.641 66.1564C124.175 69.7983 133.506 70.8435 162.014 66.0708C164.166 65.7175 166.407 65.3343 168.815 64.9476C203.809 58.9457 199.813 59.3369 257.139 48.9982C314.387 38.6331 327.995 35.4309 357.624 41.9899C363.168 43.1971 366.984 44.7208 369.319 46.5841C378.689 53.8679 367.8 65.1087 348.003 78.4996C344.864 80.6158 341.458 82.8217 337.874 85.0874C305.986 104.825 283.348 115.464 287.879 122.257C292.274 128.884 308.958 124.382 329.178 123.405C347.366 122.582 360.044 119.905 371.957 122.836C372.754 123.045 373.551 123.253 374.26 123.492C387.833 127.401 406.097 123.85 448.509 117.472C456.494 116.268 463.966 115.131 470.52 113.984C500.944 108.779 517.51 102.621 524.234 108.835C530.753 114.8 533.153 112.615 523.725 123.629C520.666 127.149 520.045 130.113 512.345 136.201C481.354 160.67 473.614 163.752 468.385 176.479" stroke="white" stroke-width="0.635" stroke-miterlimit="10"/>
<path d="M67.0492 56.9178C67.0492 56.9178 106.168 48.892 118.005 51.3191C129.527 53.6403 111.494 60.9805 123.678 64.7215C135.143 68.2805 144.73 69.2923 172.971 64.6095C175.123 64.2562 177.364 63.8729 179.684 63.5162C214.647 57.6836 210.275 58.3073 266.89 48.2081C323.505 38.1089 337.37 34.8733 366.673 41.3827C372.138 42.5635 375.954 44.0872 378.289 45.9505C387.581 53.2078 376.869 64.3887 357.271 77.607C354.132 79.7231 350.814 81.8991 347.152 84.1384C315.719 103.67 293.337 114.276 297.879 121.012C302.284 127.583 319.036 123.164 339.167 122.217C357.188 121.397 369.945 118.746 381.956 121.592C382.754 121.8 383.472 121.982 384.348 122.217C398.109 126.01 416.542 122.456 458.687 116.167C466.671 114.963 474.143 113.826 480.766 112.763C510.992 107.73 527.291 101.662 533.827 107.992C540.079 114.047 542.134 111.925 533.308 122.842C530.406 126.415 530.398 129.226 522.598 135.401C492.062 159.664 484.39 162.829 479.014 175.446" stroke="white" stroke-width="0.635" stroke-miterlimit="10"/>
<path d="M78.5004 55.9235C78.5004 55.9235 117.284 47.9046 129.22 50.2454C140.752 52.5102 123.086 59.6742 135.368 63.3289C146.932 66.8016 156.53 67.7569 184.583 63.1904C186.735 62.837 188.966 62.5102 191.295 62.097C226.06 56.4371 221.48 57.29 277.472 47.4003C333.375 37.5405 347.408 34.3015 376.475 40.7315C381.94 41.9122 385.678 43.4094 387.934 45.2462C397.147 52.477 386.624 63.5417 367.292 76.6702C364.242 78.7564 360.924 80.9323 357.351 83.1417C326.373 102.467 304.169 113.013 308.789 119.776C313.283 126.317 329.936 121.984 350.068 121.037C368.088 120.217 380.756 117.597 392.867 120.355C393.585 120.537 394.383 120.746 395.259 120.981C409.198 124.714 427.729 121.074 469.607 114.874C477.671 113.697 485.054 112.59 491.677 111.526C521.782 106.693 537.815 100.715 544.005 107.108C549.991 113.253 551.789 111.164 543.387 122.045C540.643 125.671 541.079 128.332 533.358 134.533C503.356 158.617 495.506 161.841 489.983 174.349" stroke="white" stroke-width="0.635" stroke-miterlimit="10"/>
<path d="M90.4607 54.9197C90.4607 54.9197 128.988 46.9342 141.023 49.1886C152.576 51.3406 135.343 58.4114 147.557 61.9831C159.221 65.3694 168.918 66.2385 196.772 61.8446C198.924 61.4913 201.155 61.1644 203.474 60.8077C238.041 55.3205 233.173 56.376 288.543 46.6958C343.656 37.049 357.856 33.8065 386.677 40.2134C391.975 41.3976 395.801 42.8649 398.057 44.7017C407.191 51.906 396.846 62.9108 377.791 75.8931C374.741 77.9793 371.513 80.1253 367.939 82.3347C337.417 101.454 315.39 111.94 320.1 118.673C324.683 125.184 341.236 120.937 361.368 119.99C379.22 119.174 392.056 116.55 404.177 119.253C404.985 119.405 405.693 119.643 406.49 119.852C420.696 123.495 439.405 119.794 480.849 113.688C488.912 112.511 496.285 111.46 502.819 110.427C532.816 105.736 548.571 99.9043 554.495 106.388C560.302 112.592 561.666 110.597 553.856 121.437C551.18 125.146 552.318 127.624 544.498 133.911C514.95 157.789 507.169 161.096 501.499 173.495" stroke="white" stroke-width="0.635" stroke-miterlimit="10"/>
<path d="M102.91 53.9615C102.91 53.9615 141.102 45.9828 153.236 48.1509C164.809 50.19 148.012 57.1676 160.246 60.6265C171.919 63.9564 181.716 64.7391 209.382 60.4614C211.445 60.1381 213.676 59.8112 215.995 59.4545C250.521 54.193 245.287 55.4246 299.946 45.9838C354.436 36.5465 368.715 33.3306 397.389 39.6281C402.686 40.8123 406.513 42.2796 408.779 44.0599C417.834 51.2378 407.589 62.1562 388.889 75.0188C385.928 77.075 382.7 79.2211 379.215 81.4005C349.058 100.344 327.299 110.74 332.087 117.499C336.67 124.01 353.213 119.82 373.434 118.843C391.208 118.001 403.954 115.406 416.253 118.049C417.061 118.201 417.769 118.439 418.656 118.618C433.039 122.201 451.848 118.415 493.024 112.398C501.088 111.221 508.539 110.197 515.063 109.22C544.861 104.702 560.428 98.9863 566.174 105.529C571.715 111.824 572.822 109.862 565.526 120.635C563.007 124.397 564.668 126.752 556.927 133.066C527.913 156.764 520.043 160.101 514.304 172.417" stroke="white" stroke-width="0.635" stroke-miterlimit="10"/>
<path d="M115.696 52.9967C115.696 52.9967 153.552 45.0249 165.785 47.1066C177.458 49.0594 160.937 55.8907 173.182 59.2932C184.954 62.5368 194.761 63.263 222.15 59.1316C224.213 58.8082 226.523 58.5079 228.842 58.1512C263.259 53.0324 257.727 54.5231 311.763 45.2919C365.631 36.0641 380.156 32.8712 408.426 39.0927C413.645 40.2503 417.471 41.7176 419.738 43.498C428.714 50.6493 418.735 61.478 400.224 74.2243C397.352 76.2506 394.123 78.3966 390.639 80.5761C360.858 99.2871 339.266 109.679 344.232 116.379C348.904 122.86 365.348 118.756 385.49 117.753C403.264 116.91 416.011 114.316 428.32 116.902C429.128 117.054 429.925 117.263 430.722 117.471C445.294 120.938 464.27 117.148 505.18 111.222C513.244 110.045 520.685 109.077 527.209 108.1C556.808 103.754 572.109 98.1285 577.588 104.761C582.862 111.146 583.624 109.247 576.919 119.98C574.557 123.795 576.663 126 568.912 132.37C540.353 155.862 532.462 159.313 526.665 171.489" stroke="white" stroke-width="0.635" stroke-miterlimit="10"/>
<path d="M128.629 52.141C128.629 52.141 166.062 44.2061 178.483 46.1715C190.087 48.0414 174.09 54.7496 186.355 58.0392C198.148 61.1699 208.043 61.8662 235.245 57.8511C237.308 57.5278 239.528 57.2573 241.847 56.9006C276.144 51.981 270.326 53.6743 323.65 44.6826C376.896 35.6643 391.5 32.4979 419.533 38.6399C424.752 39.7976 428.5 41.2384 430.766 43.0187C439.664 50.1436 429.784 60.8859 411.629 73.5124C408.756 75.5388 405.617 77.6549 402.132 79.8343C372.807 98.3392 351.471 108.698 356.437 115.398C361.198 121.849 377.553 117.775 397.685 116.828C415.291 115.989 428.117 113.421 440.525 115.921C441.333 116.073 442.13 116.282 442.927 116.49C457.766 119.867 476.752 116.021 517.306 110.214C525.37 109.037 532.811 108.069 539.325 107.148C568.805 103.002 583.838 97.4662 589.051 104.189C594.058 110.663 594.563 108.798 588.282 119.494C586.078 123.362 588.797 125.414 581.035 131.841C552.921 155.183 545.03 158.633 539.076 170.756" stroke="white" stroke-width="0.635" stroke-miterlimit="10"/>
<path d="M141.888 51.3351C141.888 51.3351 179.064 43.4335 191.506 45.2861C203.13 47.0431 187.489 53.6316 199.764 56.8648C211.567 59.9391 221.651 60.5191 248.575 56.6502C250.717 56.3533 252.858 56.0564 255.168 55.7561C289.434 51.0058 283.239 52.9317 336.03 44.1195C388.564 35.3406 403.424 32.1409 431.212 38.2598C436.352 39.391 440.099 40.8318 442.287 42.5857C451.106 49.6841 441.404 60.3665 423.526 72.8468C420.664 74.8167 417.603 76.9593 414.207 79.1088C385.337 97.4077 364.179 107.707 369.234 114.377C374.084 120.798 390.34 116.81 410.472 115.863C427.999 114.998 440.814 112.486 453.322 114.9C454.129 115.052 454.927 115.26 455.813 115.439C470.829 118.756 490.083 114.82 530.202 109.106C538.345 107.956 545.697 107.018 552.2 106.154C581.571 102.15 596.327 96.7604 601.273 103.573C606.102 110.107 606.252 108.361 600.573 118.961C598.438 122.911 601.768 124.81 593.996 131.294C566.337 154.43 558.426 157.993 552.413 169.977" stroke="white" stroke-width="0.635" stroke-miterlimit="10"/>
<path d="M155.21 50.6119C155.21 50.6119 192.05 42.7171 204.67 44.5099C216.393 46.1805 201.107 52.6493 213.403 55.7697C225.306 58.7576 235.399 59.2812 262.136 55.5286C264.277 55.2317 266.419 54.9348 268.639 54.6644C302.786 50.1133 296.304 52.2418 348.304 43.6426C400.216 35.0733 415.155 31.9 442.795 37.9095C447.935 39.0407 451.604 40.455 453.792 42.2089C462.532 49.2808 453.018 59.8469 435.407 72.2375C432.545 74.2074 429.573 76.3201 426.177 78.4696C397.762 96.5624 376.782 106.802 381.916 113.498C386.854 119.889 403.011 115.988 423.232 115.011C440.67 114.175 453.575 111.634 466.092 113.991C466.9 114.143 467.697 114.352 468.505 114.504C483.788 117.731 503.051 113.739 542.904 108.115C550.958 106.994 558.388 106.083 564.892 105.218C594.064 101.388 608.633 96.1142 613.322 102.96C617.884 109.584 617.777 107.871 612.523 118.434C610.545 122.438 614.32 124.187 606.626 130.697C579.422 153.627 571.501 157.247 565.42 169.148" stroke="white" stroke-width="0.635" stroke-miterlimit="10"/>
<path d="M168.519 50.0012C168.519 50.0012 205.024 42.1134 217.743 43.8198C229.398 45.4075 214.547 51.783 226.952 54.7606C238.865 57.6921 249.136 58.1559 275.606 54.4931C277.659 54.2261 279.879 53.9557 282.11 53.6289C316.058 49.2505 309.367 51.6081 360.656 43.2483C411.945 34.8885 427.052 31.7118 454.367 37.6718C459.507 38.803 463.097 40.1908 465.285 41.9447C473.947 48.9901 464.611 59.4964 447.276 71.7407C444.503 73.6807 441.531 75.7933 438.224 77.9129C410.264 95.7996 389.462 105.979 394.685 112.645C399.634 118.98 415.77 115.192 435.99 114.215C453.351 113.353 466.244 110.868 478.861 113.139C479.669 113.291 480.466 113.499 481.274 113.651C496.745 116.763 516.176 112.766 555.762 107.232C563.815 106.112 571.325 105.227 577.74 104.392C606.714 100.734 621.015 95.5507 625.516 102.513C629.812 109.226 629.527 107.574 624.618 118.074C622.797 122.13 627.185 123.726 619.392 130.322C592.722 153.073 584.79 156.749 578.562 168.541" stroke="white" stroke-width="0.635" stroke-miterlimit="10"/>
<path d="M181.804 49.5038C181.804 49.5038 217.974 41.6229 230.792 43.2429C242.467 44.7178 227.971 50.9736 240.387 53.8948C252.399 56.74 262.681 57.1473 288.952 53.6572C291.004 53.3902 293.225 53.1198 295.445 52.8494C329.363 48.6403 322.217 51.204 372.962 43.0802C423.54 34.9598 438.814 31.7796 465.893 37.6602C470.955 38.7649 474.624 40.1792 476.733 41.9066C485.316 48.9255 476.079 59.3454 459.021 71.4435C456.248 73.3835 453.286 75.4398 449.979 77.5593C422.385 95.2699 401.85 105.36 407.151 112.052C412.1 118.387 428.226 114.655 448.368 113.652C465.639 112.82 478.454 110.308 491.249 112.519C492.057 112.671 492.775 112.853 493.751 113.002C509.399 116.053 528.93 111.971 568.249 106.527C576.302 105.406 583.723 104.551 590.206 103.799C618.982 100.314 633.095 95.2466 637.33 102.299C641.447 109.072 640.895 107.509 636.5 117.942C634.837 122.052 639.748 123.525 632.034 130.147C605.818 152.692 597.787 156.454 591.49 168.163" stroke="white" stroke-width="0.635" stroke-miterlimit="10"/>
<path d="M194.902 49.1231C194.902 49.1231 230.736 41.249 243.565 42.8126C255.171 44.2046 241.199 50.3372 253.635 53.1456C265.746 55.9044 276.038 56.2553 302.121 52.8815C304.174 52.6145 306.305 52.374 308.526 52.1036C342.324 48.0937 334.891 50.86 385.013 42.9457C434.968 35.0349 450.411 31.8513 477.164 37.6823C482.226 38.787 485.816 40.1748 487.846 41.8757C496.351 48.8681 487.38 59.1983 470.511 71.1801C467.827 73.0901 464.865 75.1464 461.647 77.236C434.507 94.7405 414.14 104.827 419.541 111.433C424.579 117.738 440.695 114.063 460.747 113.089C477.94 112.23 490.834 109.746 503.638 111.9C504.446 112.052 505.254 112.204 506.14 112.383C522.056 115.344 541.764 111.202 580.649 105.851C588.702 104.73 596.201 103.902 602.596 103.18C631.341 99.8643 645.098 94.9165 649.076 102.002C652.927 108.865 652.108 107.392 648.147 117.732C646.552 121.924 651.997 123.218 644.352 129.923C618.591 152.262 610.629 156.107 604.185 167.706" stroke="white" stroke-width="0.635" stroke-miterlimit="10"/>
<path d="M207.717 48.8879C207.717 48.8879 243.295 41.0472 256.144 42.498C267.85 43.8036 254.234 49.8165 266.601 52.542C278.643 55.2179 289.202 55.479 315.008 52.2514C317.061 51.9844 319.192 51.7439 321.403 51.53C355.081 47.7192 347.272 50.7181 396.772 43.0133C446.016 35.3419 461.625 32.1549 488.143 37.9064C493.126 38.9846 496.716 40.3724 498.746 42.0733C507.172 49.0392 498.301 59.283 481.787 71.1451C479.103 73.0552 476.23 75.0815 473.012 77.1711C446.327 94.4696 426.138 104.496 431.539 111.102C436.665 117.377 452.682 113.788 472.735 112.815C489.838 111.986 502.732 109.501 515.636 111.569C516.444 111.721 517.251 111.873 518.138 112.052C534.32 114.924 554.039 110.725 592.657 105.464C600.789 104.369 608.199 103.571 614.672 102.876C643.219 99.7326 656.788 94.9011 660.499 102.076C664.084 109.029 663.087 107.616 659.55 117.919C658.113 122.164 664.17 123.305 656.435 130.04C631.13 152.173 623.157 156.074 616.644 167.591" stroke="white" stroke-width="0.635" stroke-miterlimit="10"/>
<path d="M220.266 48.7994C220.266 48.7994 255.42 40.9955 268.536 42.3565C280.173 43.5792 267.001 49.4425 279.468 52.0815C291.609 54.6711 302.257 54.9023 327.796 51.7644C329.849 51.4975 331.97 51.3134 334.191 51.043C367.839 47.4016 359.653 50.633 408.452 43.1113C457.073 35.6494 472.84 32.5153 499.122 38.1874C504.104 39.2656 507.616 40.6269 509.646 42.3278C517.904 49.2971 509.3 59.4512 493.064 71.167C490.468 73.0472 487.595 75.0735 484.377 77.1631C458.069 94.229 438.136 104.222 443.615 110.855C448.831 117.1 464.749 113.597 484.89 112.594C501.915 111.738 514.888 109.28 527.802 111.292C528.698 111.414 529.417 111.596 530.225 111.748C546.674 114.53 566.481 110.301 604.833 105.13C612.965 104.036 620.365 103.294 626.838 102.599C655.186 99.6279 668.489 94.8862 672.012 102.178C675.418 109.19 674.155 107.867 671.052 118.077C669.772 122.375 676.353 123.393 668.608 130.184C643.668 152.141 635.764 156.125 629.193 167.502" stroke="white" stroke-width="0.635" stroke-miterlimit="10"/>
<path d="M232.352 48.9163C232.352 48.9163 267.171 41.1193 280.386 42.394C292.043 43.5039 279.306 49.2739 291.793 51.8001C304.034 54.3033 314.692 54.4781 339.954 51.4865C342.007 51.2195 344.128 51.0355 346.338 50.8215C379.788 47.3527 371.394 50.8133 419.57 43.501C467.568 36.2487 483.503 33.1111 509.46 38.7337C514.364 39.7854 517.875 41.1467 519.906 42.8476C528.085 49.7905 519.669 59.8282 503.699 71.4543C501.104 73.3344 498.32 75.3308 495.191 77.3905C469.337 94.2503 449.582 104.183 455.15 110.786C460.455 117.001 476.274 113.585 496.415 112.582C513.272 111.73 526.324 109.298 539.337 111.223C540.234 111.345 540.952 111.527 541.849 111.649C558.397 114.345 578.461 110.083 616.467 104.975C624.599 103.881 632.078 103.165 638.373 102.53C666.523 99.7322 679.638 95.1067 682.815 102.461C686.033 109.59 684.513 108.301 681.835 118.474C680.713 122.825 687.738 123.693 680.15 130.537C655.666 152.287 647.751 156.328 640.944 167.626" stroke="white" stroke-width="0.635" stroke-miterlimit="10"/>
<path d="M244.071 49.2098C244.071 49.2098 278.554 41.4197 291.868 42.608C303.458 43.635 291.244 49.2818 303.662 51.7252C315.913 54.1719 326.671 54.2604 351.745 51.385C353.787 51.1745 355.919 50.934 358.04 50.75C391.37 47.4804 382.689 51.1436 430.153 44.0708C477.44 37.0578 493.543 33.9169 519.352 39.43C524.256 40.4817 527.689 41.8166 529.719 43.5174C537.82 50.4338 529.581 60.4117 513.889 71.8916C511.382 73.7418 508.599 75.7382 505.469 77.7979C479.982 94.4815 460.493 104.325 466.14 110.954C471.534 117.139 487.253 113.809 507.316 112.779C524.173 111.928 537.136 109.526 550.248 111.365C551.145 111.487 551.864 111.669 552.76 111.791C569.575 114.397 589.65 110.078 627.388 105.06C635.521 103.966 642.911 103.28 649.363 102.698C677.315 100.073 690.241 95.5636 693.241 102.978C696.192 110.197 694.494 108.967 692.162 119.077C691.197 123.481 698.834 124.196 691.069 131.1C667.039 152.644 659.104 156.798 652.239 167.956" stroke="white" stroke-width="0.635" stroke-miterlimit="10"/>
<path d="M255.003 49.7163C255.003 49.7163 289.062 41.963 302.564 43.035C314.253 43.9756 302.316 49.4763 314.833 51.8333C327.183 54.1937 338.119 54.2223 362.916 51.4931C364.958 51.2826 367.079 51.0985 369.211 50.8581C402.51 47.7577 393.374 51.627 440.295 44.7902C486.88 37.9603 503.14 34.8723 528.714 40.306C533.539 41.3312 536.972 42.666 538.923 44.3404C546.945 51.2303 538.806 61.1219 523.469 72.482C520.962 74.3322 518.268 76.2987 515.228 78.3285C490.195 94.806 470.963 104.616 476.62 111.189C481.935 117.348 497.812 114.071 517.786 113.071C534.475 112.222 547.527 109.79 560.728 111.599C561.625 111.721 562.432 111.874 563.24 112.026C580.322 114.542 600.574 110.163 637.879 105.238C646.011 104.144 653.39 103.515 659.843 102.933C687.685 100.45 700.335 96.0873 703.067 103.592C705.752 110.9 703.876 109.73 701.978 119.747C701.081 124.234 709.331 124.795 701.645 131.726C678.07 153.064 670.125 157.275 663.191 168.35" stroke="white" stroke-width="0.635" stroke-miterlimit="10"/>
<path d="M265.39 50.4588C265.39 50.4588 299.113 42.7123 312.715 43.698C324.335 44.5557 312.921 49.9332 325.37 52.2073C337.82 54.4813 348.765 54.4535 373.374 51.8406C375.417 51.6301 377.538 51.4461 379.659 51.262C412.839 48.3609 403.415 52.4328 449.635 45.779C495.509 39.1885 512.026 36.0672 537.274 41.4513C542.099 42.4765 545.532 43.8114 547.404 45.4593C555.348 52.3227 547.475 62.1244 532.327 73.3683C529.909 75.1886 527.214 77.155 524.174 79.1848C499.596 95.4563 480.453 105.236 486.278 111.806C491.682 117.934 507.46 114.744 527.523 113.714C544.212 112.866 557.174 110.464 570.475 112.186C571.372 112.308 572.179 112.46 573.076 112.583C590.425 115.009 610.687 110.574 647.636 105.769C655.847 104.701 663.226 104.072 669.59 103.52C697.234 101.21 709.528 96.9667 712.082 104.531C714.589 111.899 712.446 110.819 710.973 120.799C710.312 125.365 718.928 125.751 711.31 132.765C688.101 153.927 680.313 158.19 673.232 169.156" stroke="white" stroke-width="0.635" stroke-miterlimit="10"/>
<path d="M274.996 51.4143C274.996 51.4143 308.384 43.6748 322.163 44.6006C333.803 45.3454 322.824 50.6297 335.294 52.7909C347.842 54.9786 358.877 54.9209 383.219 52.3978C385.261 52.1873 387.294 52.0331 389.415 51.8491C422.564 49.1172 412.764 53.4217 458.273 47.0074C503.524 40.6264 520.119 37.5315 545.131 42.8362C549.878 43.8349 553.311 45.1698 555.183 46.8177C563.048 53.6546 555.275 63.37 540.482 74.4941C538.064 76.3144 535.458 78.2509 532.507 80.2508C508.305 96.2897 489.419 106.036 495.333 112.576C500.826 118.675 516.425 115.544 536.567 114.541C553.089 113.696 566.219 111.29 579.53 112.956C580.426 113.079 581.234 113.231 582.131 113.353C599.746 115.689 620.097 111.225 656.779 106.509C664.901 105.471 672.36 104.868 678.713 104.373C706.159 102.236 718.264 98.1087 720.641 105.733C722.881 113.191 720.639 112.197 719.521 122.057C719.018 126.677 728.246 126.909 720.618 133.979C697.864 154.935 689.977 159.285 682.828 170.168" stroke="white" stroke-width="0.635" stroke-miterlimit="10"/>
<path d="M283.71 52.6128C283.71 52.6128 316.674 44.91 330.641 45.7195C342.213 46.3815 331.679 51.5161 344.159 53.6209C356.717 55.7522 367.851 55.6081 391.916 53.2312C393.958 53.0207 395.99 52.8666 398.101 52.7389C431.131 50.2063 421.044 54.7134 465.93 48.5085C510.559 42.3371 527.322 39.2388 552.008 44.4939C556.755 45.4926 560.109 46.801 561.982 48.4489C569.768 55.2593 562.172 64.9148 547.656 75.8928C545.328 77.6831 542.722 79.6197 539.771 81.6195C516.024 97.4524 497.315 107.139 503.308 113.705C508.89 119.774 524.39 116.73 544.532 115.726C561.054 114.881 574.095 112.506 587.505 114.086C588.323 114.181 589.13 114.333 590.027 114.456C607.909 116.702 628.35 112.208 664.686 107.555C672.808 106.518 680.266 105.915 686.609 105.476C713.857 103.511 725.774 99.5005 727.884 107.214C729.858 114.762 727.438 113.828 726.744 123.651C726.398 128.324 736.15 128.433 728.433 135.533C706.134 156.283 698.315 160.716 691.019 171.489" stroke="white" stroke-width="0.635" stroke-miterlimit="10"/>
<path d="M291.63 54.0801C291.63 54.0801 324.337 46.4108 338.325 47.1074C349.907 47.713 339.817 52.6979 352.318 54.6899C364.897 56.7083 376.208 56.5043 399.996 54.2737C402.039 54.0632 404.061 53.9655 406.182 53.7814C439.092 51.4479 428.718 56.1577 472.981 50.1624C516.898 44.2304 533.829 41.1286 558.358 46.3307C563.105 47.3295 566.38 48.6113 568.174 50.2328C575.802 56.9902 568.474 66.5559 554.146 77.4176C551.817 79.2079 549.301 81.1145 546.271 83.0879C522.89 98.7446 504.448 108.342 510.53 114.878C516.2 120.917 531.602 117.959 551.665 116.929C568.019 116.087 581.139 113.738 594.648 115.232C595.466 115.327 596.273 115.479 597.259 115.572C615.329 117.702 635.859 113.178 671.928 108.615C680.05 107.577 687.498 107.031 693.841 106.592C720.89 104.8 732.62 100.906 734.384 108.683C736.18 116.291 733.582 115.416 733.145 125.206C732.957 129.932 743.153 129.891 735.593 137.044C713.749 157.588 705.832 162.107 698.555 172.768" stroke="white" stroke-width="0.635" stroke-miterlimit="10"/>
<path d="M298.407 55.8239C298.407 55.8239 330.779 48.1614 344.866 48.7718C356.469 49.2644 346.814 54.1562 359.334 56.0353C372.013 57.9674 383.413 57.7335 406.934 55.5926C408.888 55.412 410.999 55.2844 413.11 55.1568C445.989 52.9926 435.16 57.9084 478.79 52.179C522.085 46.4565 539.183 43.3513 563.388 48.5039C568.055 49.4761 571.331 50.758 573.125 52.3794C580.674 59.1104 573.524 68.6162 559.473 79.3317C557.233 81.0921 554.717 82.9987 551.775 84.9421C528.849 100.393 510.586 109.93 516.746 116.493C522.417 122.531 537.808 119.63 557.96 118.57C574.146 117.732 587.434 115.38 600.953 116.817C601.771 116.912 602.668 117.034 603.564 117.156C621.902 119.197 642.608 114.613 678.244 110.144C686.444 109.132 693.803 108.616 700.225 108.203C727.165 106.554 738.539 102.779 740.115 110.673C741.644 118.371 738.947 117.583 738.865 127.253C738.913 132.058 749.643 131.838 741.984 139.077C720.506 159.445 712.746 164.017 705.323 174.568" stroke="white" stroke-width="0.635" stroke-miterlimit="10"/>
<path d="M303.869 57.9604C303.869 57.9604 335.817 50.3347 350.092 50.8287C361.626 51.2385 352.505 55.9506 364.947 57.8033C377.635 59.679 389.134 59.3587 412.546 57.3606C414.5 57.18 416.611 57.0524 418.633 56.9547C451.392 54.9896 440.276 60.1081 483.205 54.5617C525.789 49.0787 543.055 45.9701 567.112 51.0133C571.78 51.9855 574.976 53.2409 576.859 54.8323C584.33 61.5368 577.279 70.9563 563.584 81.5521C561.344 83.3125 558.916 85.1891 555.975 87.1325C533.504 102.377 515.408 111.911 521.667 118.387C527.427 124.396 542.808 121.551 562.871 120.521C579.057 119.683 592.177 117.334 605.874 118.711C606.692 118.807 607.589 118.929 608.485 119.051C627.09 121.002 647.885 116.388 683.254 112.008C691.454 110.997 698.814 110.48 705.136 110.154C731.878 108.678 743.063 105.019 744.383 112.946C745.645 120.734 742.77 120.006 743.113 129.639C743.229 134.527 754.493 134.127 746.913 141.393C725.811 161.528 718.119 166.183 710.538 176.681" stroke="white" stroke-width="0.635" stroke-miterlimit="10"/>
<path d="M307.926 60.463C307.926 60.463 339.539 52.8442 353.992 53.2784C365.536 53.6318 356.859 58.1943 369.322 59.9341C382.109 61.7234 393.698 61.3732 416.843 59.4649C418.875 59.3108 420.897 59.2131 422.919 59.1154C455.648 57.3196 444.156 62.6706 486.462 57.3338C528.423 52.0603 545.856 48.9482 569.588 53.9418C574.177 54.8876 577.374 56.143 579.257 57.7344C586.649 64.4124 579.865 73.7421 566.358 84.2216C564.128 85.9256 561.779 87.8287 558.927 89.7422C536.832 104.754 518.993 114.255 525.331 120.757C531.101 126.71 546.461 123.978 566.524 122.948C582.543 122.113 595.741 119.791 609.538 121.081C610.445 121.147 611.252 121.299 612.238 121.391C631.109 123.253 651.915 118.582 687.016 114.292C695.217 113.281 702.566 112.821 708.889 112.494C735.353 111.164 746.429 107.649 747.482 115.665C748.477 123.543 745.503 122.901 746.113 132.444C746.387 137.385 758.174 136.862 750.583 144.185C729.936 164.114 722.224 168.881 714.585 179.24" stroke="white" stroke-width="0.635" stroke-miterlimit="10"/>
<path d="M311.439 63.6796C311.439 63.6796 342.627 56.0976 357.268 56.4155C368.744 56.686 360.59 61.1253 372.984 62.7822C385.871 64.4852 397.548 64.105 420.338 62.3165C422.37 62.1623 424.392 62.0646 426.414 61.9669C459.023 60.3704 447.244 65.924 488.839 60.8266C530.177 55.7626 547.689 52.677 571.185 57.5912C575.774 58.537 578.971 59.7923 580.775 61.3573C588.089 68.0088 581.403 77.2522 568.252 87.6119C566.022 89.3159 563.762 91.1891 560.91 93.1026C539.27 107.909 521.609 117.349 528.036 123.822C533.894 129.744 549.156 127.099 569.14 126.042C585.159 125.207 598.357 122.885 612.164 124.119C613.071 124.185 613.878 124.337 614.785 124.403C633.923 126.174 654.818 121.474 689.574 117.247C697.775 116.236 705.202 115.802 711.515 115.532C737.781 114.375 748.669 110.976 749.455 119.082C750.272 127.019 747.199 126.464 748.154 135.944C748.586 140.938 760.985 140.262 753.384 147.641C733.103 167.394 725.47 172.188 717.762 182.464" stroke="white" stroke-width="0.635" stroke-miterlimit="10"/>
<path d="M314.311 67.1614C314.311 67.1614 345.163 59.5862 359.903 59.8178C371.4 59.9754 363.602 64.295 376.095 65.8655C389.081 67.4822 400.858 67.0157 423.37 65.3733C425.402 65.2192 427.335 65.1514 429.357 65.0537C461.847 63.6564 449.691 69.4426 490.753 64.5248C531.301 59.6737 549.059 56.6112 572.319 61.4459C576.829 62.3651 580.026 63.6205 581.752 65.159C588.986 71.784 582.479 80.9675 569.604 91.181C567.464 92.8551 565.125 94.7018 562.441 96.6119C541.166 111.242 523.772 120.592 530.278 127.092C536.225 132.984 551.387 130.425 571.461 129.338C587.312 128.507 600.589 126.211 614.495 127.359C615.402 127.425 616.298 127.547 617.116 127.643C636.521 129.324 657.505 124.594 691.915 120.431C700.194 119.446 707.533 119.042 713.846 118.772C740.002 117.758 750.535 114.478 751.143 122.644C751.693 130.671 748.443 130.176 749.743 139.593C750.411 144.666 763.176 143.814 755.644 151.276C735.817 170.823 728.253 175.699 720.398 185.866" stroke="white" stroke-width="0.635" stroke-miterlimit="10"/>
<path d="M316.428 70.6874C316.428 70.6874 346.935 63.1755 361.696 63.2943C373.202 63.3954 365.849 67.5654 378.363 69.0231C391.448 70.5533 403.313 70.0569 425.559 68.5044C427.502 68.3802 429.603 68.309 431.536 68.2412C463.995 67.0131 451.384 73.0054 491.902 68.3236C531.827 63.682 549.832 60.6425 572.767 65.4277C577.277 66.347 580.395 67.5758 582.121 69.1143C589.277 75.7129 582.957 84.7801 570.35 94.9038C568.209 96.5779 565.959 98.3947 563.275 100.305C542.456 114.728 525.239 124.019 531.834 130.489C537.781 136.381 552.933 133.878 573.007 132.792C588.858 131.961 602.046 129.695 616.051 130.756C616.958 130.822 617.854 130.944 618.761 131.01C638.354 132.575 659.594 127.811 693.649 123.768C701.928 122.783 709.178 122.409 715.559 122.222C741.518 121.38 751.862 118.217 752.204 126.473C752.487 134.59 749.226 134.151 750.783 143.534C751.608 148.661 764.896 147.685 757.365 155.147C737.825 174.491 730.329 179.451 722.327 189.509" stroke="white" stroke-width="0.635" stroke-miterlimit="10"/>
<path d="M318.123 74.2503C318.123 74.2503 348.206 66.7753 363.155 66.7778C374.593 66.796 367.764 70.8428 380.209 72.2176C393.304 73.6914 405.268 73.1087 427.326 71.6724C429.269 71.5482 431.281 71.5069 433.303 71.4092C465.642 70.3803 452.745 76.5752 492.472 72.1064C531.686 67.7043 549.859 64.6614 572.557 69.367C576.989 70.2598 580.107 71.4887 581.832 73.0272C588.909 79.5992 582.768 88.6066 570.437 98.5841C568.386 100.228 566.136 102.045 563.451 103.955C543.008 118.146 526.048 127.404 532.722 133.9C538.758 139.762 553.9 137.316 573.884 136.259C589.568 135.431 602.924 133.162 616.939 134.167C617.846 134.233 618.742 134.355 619.649 134.421C639.509 135.896 660.759 131.076 694.547 127.122C702.738 126.167 710.155 125.79 716.447 125.633C742.207 124.964 752.363 121.917 752.438 130.263C752.544 138.439 749.095 138.117 751.007 147.38C752.069 152.586 765.812 151.405 758.26 158.98C739.175 178.118 731.748 183.16 723.598 193.108" stroke="white" stroke-width="0.635" stroke-miterlimit="10"/>
<path d="M319.068 77.8006C319.068 77.8006 348.816 70.3325 363.943 70.2751C375.312 70.2104 368.927 74.1076 381.471 75.396C394.666 76.7835 406.719 76.1708 428.51 74.8243C430.453 74.7001 432.465 74.6589 434.477 74.6176C466.786 73.7579 453.512 80.1854 492.616 75.9261C531.208 71.7334 549.548 68.6871 572.011 73.3133C576.442 74.2061 579.481 75.4085 581.207 76.947C588.205 83.4925 582.163 92.4135 570.188 102.271C568.137 103.915 565.976 105.702 563.38 107.582C543.392 121.568 526.6 130.822 533.372 137.231C539.498 143.064 554.54 140.704 574.525 139.647C590.129 138.793 603.475 136.58 617.501 137.529C618.407 137.594 619.225 137.69 620.211 137.782C640.337 139.168 661.677 134.318 695.119 130.427C703.309 129.472 710.717 129.152 717.009 128.994C742.581 128.442 752.539 125.567 752.268 133.976C752.106 142.243 748.568 141.95 750.738 151.18C751.956 156.439 766.223 155.135 758.661 162.766C739.952 181.671 732.504 186.827 724.375 196.662" stroke="white" stroke-width="0.635" stroke-miterlimit="10"/>
<path d="M319.661 81.4137C319.661 81.4137 348.984 73.9824 364.299 73.8087C375.679 73.6876 369.738 77.4351 382.214 78.6406C395.508 79.9418 407.65 79.2991 429.164 78.0989C431.107 77.9747 433.03 77.9633 435.042 77.9221C467.31 77.2881 453.67 83.8917 492.152 79.8419C530.032 75.8887 548.54 72.8389 570.766 77.3857C575.109 78.3084 578.158 79.4543 579.805 80.9663C586.725 87.4854 580.949 96.3166 569.084 106.032C567.121 107.646 564.96 109.433 562.286 111.286C542.753 125.065 526.138 134.26 532.989 140.696C539.204 146.498 554.147 144.224 574.142 143.111C589.658 142.287 603.014 140.018 617.128 140.937C618.035 141.002 618.853 141.098 619.848 141.134C640.33 142.4 661.67 137.549 694.678 133.752C702.947 132.824 710.276 132.477 716.636 132.402C742.01 132.022 751.701 129.238 751.331 137.733C750.903 146.089 747.266 145.883 749.781 155.05C751.157 160.362 765.868 158.908 758.384 166.565C740.042 185.295 732.751 190.503 724.475 200.229" stroke="white" stroke-width="0.635" stroke-miterlimit="10"/>
<path d="M319.859 84.9513C319.859 84.9513 348.759 77.5568 364.261 77.2668C375.573 77.0628 370.156 80.6872 382.652 81.7798C395.966 82.9681 408.365 82.2921 429.523 81.2116C431.545 81.1139 433.468 81.1025 435.391 81.0912C467.539 80.6564 453.533 87.4362 491.382 83.6523C528.64 79.9086 547.315 76.8554 569.217 81.3526C573.48 82.2488 576.53 83.3948 578.177 84.9068C585.018 91.3993 579.341 100.144 567.832 109.74C565.869 111.354 563.797 113.111 561.212 114.934C542.045 128.537 525.697 137.642 532.637 144.048C538.862 149.794 553.785 147.633 573.779 146.52C589.216 145.669 602.562 143.456 616.776 144.289C617.682 144.355 618.589 144.42 619.496 144.486C640.166 145.636 661.674 140.782 694.415 137.075C702.684 136.146 710.002 135.855 716.274 135.811C741.449 135.604 750.952 132.935 750.315 141.521C749.62 149.967 745.973 149.817 748.755 158.894C750.456 164.255 765.612 162.651 758.029 170.395C740.142 188.919 732.841 194.184 724.407 203.856" stroke="white" stroke-width="0.635" stroke-miterlimit="10"/>
<path d="M319.72 88.4954C319.72 88.4954 348.363 81.1343 363.886 80.7314C375.129 80.4445 370.245 83.8893 382.663 84.9555C396.076 86.0574 408.485 85.325 429.455 84.3607C431.477 84.263 433.4 84.2517 435.323 84.2403C467.44 83.9748 453.058 90.9871 490.285 87.4128C526.841 83.8521 545.674 80.8519 567.339 85.2696C571.603 86.1658 574.653 87.3118 576.221 88.7973C582.894 95.2933 577.485 103.948 566.252 113.397C564.378 114.982 562.306 116.739 559.721 118.562C540.93 131.933 524.839 141.004 531.858 147.436C538.082 153.183 552.916 151.051 572.99 149.965C588.338 149.144 601.684 146.931 615.996 147.677C616.903 147.743 617.81 147.809 618.717 147.875C639.654 148.935 661.25 144.051 693.645 140.407C701.915 139.478 709.223 139.244 715.494 139.2C740.482 139.109 749.786 136.613 748.804 145.262C747.931 153.767 744.184 153.704 747.223 162.748C749.081 168.162 764.682 166.408 757.257 174.205C739.657 192.526 732.503 197.9 724.011 207.434" stroke="white" stroke-width="0.635" stroke-miterlimit="10"/>
<path d="M319.5 92.0131C319.5 92.0131 347.719 84.6887 363.509 84.1961C374.851 83.8229 370.323 87.1479 382.761 88.1013C396.273 89.1169 408.772 88.3545 429.475 87.48C431.408 87.4123 433.331 87.4009 435.253 87.3896C467.251 87.3232 452.582 94.5382 489.108 91.1468C524.952 87.8256 544.042 84.792 565.461 89.1867C569.646 90.0564 572.695 91.2024 574.263 92.6879C580.858 99.1574 575.637 107.696 564.671 117.056C562.797 118.64 560.814 120.367 558.318 122.161C539.981 135.325 524.068 144.336 531.176 150.739C537.49 156.455 552.224 154.41 572.298 153.324C587.567 152.477 600.992 150.29 615.315 150.98C616.221 151.045 617.128 151.111 618.124 151.147C639.328 152.117 660.934 147.177 693.063 143.623C701.332 142.694 708.64 142.46 714.98 142.499C739.769 142.58 748.807 140.174 747.726 148.909C746.586 157.505 742.661 157.501 746.045 166.482C748.14 171.975 764.185 170.072 756.75 177.926C739.605 196.04 732.441 201.471 723.88 210.922" stroke="white" stroke-width="0.635" stroke-miterlimit="10"/>
<path d="M318.952 95.481C318.952 95.481 346.746 88.1935 362.724 87.5846C373.998 87.1284 369.994 90.3303 382.452 91.1708C396.064 92.1001 408.651 91.3078 428.998 90.553C430.931 90.4853 432.933 90.5004 434.767 90.519C466.645 90.6519 451.688 98.0694 487.502 94.9175C522.724 91.8058 541.893 88.7987 563.075 93.1139C567.26 93.9836 570.231 95.1031 571.799 96.5887C578.315 103.032 573.272 111.511 562.583 120.724C560.798 122.278 558.815 124.005 556.319 125.799C538.437 138.757 522.613 147.738 529.889 154.137C536.291 159.824 551.016 157.836 571.089 156.749C586.27 155.932 599.694 153.745 614.116 154.349C615.112 154.384 615.93 154.48 616.925 154.516C638.406 155.34 660.091 150.426 691.875 146.935C700.222 146.033 707.442 145.829 713.693 145.897C738.283 146.152 747.133 143.862 745.785 152.687C744.378 161.372 740.444 161.425 744.173 170.342C746.425 175.889 762.915 173.836 755.558 181.716C738.701 199.628 731.694 205.112 723.065 214.479" stroke="white" stroke-width="0.635" stroke-miterlimit="10"/>
<path d="M318.419 98.8926C318.419 98.8926 345.957 91.6385 361.955 90.9167C373.239 90.4042 369.601 93.4299 382.07 94.214C395.691 95.0868 408.456 94.2347 428.537 93.5697C430.47 93.5019 432.383 93.547 434.216 93.5656C466.054 93.9241 450.564 101.521 485.923 98.5755C520.433 95.7032 539.858 92.6627 560.716 96.9284C564.822 97.7716 567.793 98.8911 569.282 100.35C575.72 106.767 570.775 115.159 560.442 124.253C558.657 125.807 556.763 127.504 554.267 129.298C536.762 142.023 521.273 150.998 528.47 157.371C534.961 163.027 549.587 161.125 569.581 160.012C584.683 159.168 598.097 157.038 612.618 157.555C613.614 157.591 614.432 157.687 615.349 157.696C637.097 158.43 658.96 153.456 690.387 150.085C698.735 149.183 706.033 149.006 712.195 149.104C736.598 149.475 745.249 147.358 743.555 156.246C741.882 165.021 737.937 165.13 741.844 173.987C744.333 179.614 761.356 177.381 753.9 185.348C737.419 203.027 730.47 208.65 721.694 217.908" stroke="white" stroke-width="0.635" stroke-miterlimit="10"/>
<path d="M317.892 102.248C317.892 102.248 345.006 95.0307 361.192 94.1926C372.407 93.5971 369.293 96.4997 381.782 97.1709C395.502 97.9574 408.356 97.0754 428.249 96.5267C430.182 96.4589 432.094 96.504 434.007 96.5491C465.814 97.0769 449.947 104.907 484.684 102.17C518.572 99.5075 538.076 96.4935 558.786 100.65C562.892 101.493 565.873 102.556 567.274 104.045C573.633 110.435 568.955 118.738 558.81 127.715C557.114 129.239 555.22 130.936 552.813 132.7C535.673 145.25 520.451 154.134 527.816 160.504C534.396 166.13 548.922 164.315 568.917 163.202C583.851 162.361 597.354 160.201 611.964 160.688C612.96 160.724 613.867 160.79 614.784 160.799C636.798 161.443 658.75 156.44 689.832 153.132C698.18 152.23 705.389 152.082 711.709 152.234C735.913 152.777 744.376 150.776 742.416 159.754C740.565 168.589 736.521 168.785 740.695 177.552C743.34 183.231 760.809 180.849 753.51 188.869C737.394 206.372 730.525 212.022 721.68 221.197" stroke="white" stroke-width="0.635" stroke-miterlimit="10"/>
<path d="M317.478 105.461C317.478 105.461 344.245 98.3067 360.541 97.3259C371.767 96.674 369.186 99.3969 381.517 100.015C395.337 100.715 408.202 99.7768 427.906 99.3444C429.917 99.3032 431.741 99.3782 433.575 99.3967C465.262 100.124 449.109 108.156 483.134 105.659C516.31 103.236 535.982 100.219 556.456 104.295C560.483 105.112 563.464 106.175 564.865 107.664C571.145 114.028 566.566 122.244 556.777 131.101C555.17 132.596 553.276 134.293 550.869 136.057C534.184 148.4 519.14 157.225 526.504 163.594C533.006 169.194 547.601 167.462 567.596 166.349C582.53 165.508 595.944 163.378 610.653 163.779C611.57 163.788 612.556 163.88 613.473 163.89C635.764 164.388 657.795 159.411 688.531 156.166C696.79 155.294 704.078 155.173 710.398 155.324C734.493 156.01 742.6 154.129 740.54 163.194C738.422 172.118 734.368 172.37 738.799 181.104C741.77 186.833 759.594 184.331 752.206 192.381C736.467 209.651 729.655 215.44 720.753 224.476" stroke="white" stroke-width="0.635" stroke-miterlimit="10"/>
<path d="M317.248 108.614C317.248 108.614 343.591 101.496 360.154 100.426C371.311 99.691 369.175 102.264 381.605 102.796C395.525 103.41 408.478 102.442 427.915 102.099C429.927 102.058 431.751 102.133 433.574 102.208C465.221 103.16 448.701 111.369 482.025 109.055C514.5 106.815 534.418 103.82 554.567 107.848C558.595 108.664 561.497 109.701 562.897 111.19C569.099 117.527 564.698 125.684 555.186 134.395C553.579 135.889 551.774 137.556 549.455 139.29C533.147 151.401 518.27 160.222 525.891 166.558C532.482 172.129 546.978 170.482 567.061 169.339C581.828 168.502 595.321 166.398 610.129 166.713C611.046 166.722 611.953 166.788 612.949 166.824C635.507 167.232 657.627 162.225 688.017 159.044C696.355 158.198 703.643 158.077 709.863 158.315C733.681 159.147 741.679 157.409 739.274 166.536C736.889 175.551 732.736 175.889 737.433 184.534C740.562 190.315 758.83 187.664 751.6 195.766C736.227 212.861 729.494 218.676 720.523 227.629" stroke="white" stroke-width="0.635" stroke-miterlimit="10"/>
<path d="M317.195 111.65C317.195 111.65 343.282 104.566 359.865 103.383C371.032 102.591 369.34 105.015 381.792 105.434C395.731 105.935 408.852 104.963 427.934 104.74C429.857 104.729 431.68 104.804 433.593 104.849C465.12 106.001 448.234 114.385 480.925 112.338C512.689 110.337 532.774 107.339 552.687 111.287C556.636 112.077 559.617 113.14 560.939 114.602C567.061 120.913 562.927 128.98 553.525 137.548C552.007 139.013 550.123 140.653 547.804 142.387C531.951 154.292 517.252 163.053 524.873 169.389C531.553 174.93 546.038 173.34 566.033 172.227C580.799 171.39 594.292 169.286 609.111 169.544C610.028 169.553 610.935 169.619 612.019 169.625C634.766 169.917 657.053 164.907 687.099 161.789C695.436 160.943 702.635 160.852 708.934 161.116C732.643 162.091 740.364 160.499 737.692 169.716C735.129 178.791 730.876 179.215 735.919 187.796C739.284 193.658 758.086 190.827 750.757 199.015C735.671 215.907 729.174 221.802 719.888 230.649" stroke="white" stroke-width="0.635" stroke-miterlimit="10"/>
<path d="M317.501 114.566C317.501 114.566 343.163 107.519 359.935 106.22C371.033 105.345 369.875 107.589 382.248 107.982C396.287 108.397 409.496 107.395 428.311 107.262C430.234 107.25 432.136 107.352 433.96 107.427C465.367 108.778 448.194 117.365 480.263 115.527C511.404 113.736 531.657 110.734 551.324 114.659C555.273 115.449 558.175 116.486 559.418 117.922C565.462 124.206 561.427 132.186 552.38 140.635C550.862 142.099 549.067 143.71 546.837 145.414C531.35 157.143 516.918 165.814 524.707 172.147C531.475 177.657 545.862 176.154 565.777 175.014C580.376 174.181 593.948 172.103 608.866 172.275C609.783 172.284 610.779 172.32 611.696 172.329C634.798 172.502 657.085 167.491 686.864 164.463C695.201 163.618 702.479 163.553 708.689 163.847C732.12 164.968 739.732 163.519 736.882 172.796C734.053 181.961 729.711 182.415 735.011 190.963C738.622 196.847 757.78 193.896 750.529 202.111C735.819 218.771 729.302 224.778 720.036 233.513" stroke="white" stroke-width="0.635" stroke-miterlimit="10"/>
<path d="M318.165 117.364C318.165 117.364 343.482 110.38 360.274 108.967C371.383 108.037 370.67 110.131 383.062 110.411C397.2 110.739 410.499 109.707 429.047 109.664C430.97 109.653 432.872 109.754 434.607 109.859C465.973 111.436 448.435 120.199 479.88 118.57C510.399 116.989 530.81 114.04 550.161 117.859C554.11 118.649 556.934 119.659 558.177 121.095C564.142 127.353 560.285 135.274 551.515 143.576C550.007 144.984 548.291 146.621 546.061 148.325C530.951 159.821 516.854 168.486 524.564 174.792C531.332 180.302 545.708 178.855 565.624 177.716C580.223 176.882 593.706 174.835 608.723 174.92C609.64 174.93 610.635 174.965 611.552 174.975C634.921 175.057 657.219 169.99 686.642 167.082C694.979 166.236 702.247 166.228 708.536 166.549C731.858 167.813 739.114 166.483 735.997 175.85C732.901 185.104 728.549 185.615 734.105 194.129C737.952 200.093 757.555 196.993 750.294 205.264C735.95 221.747 729.59 227.808 720.177 236.433" stroke="white" stroke-width="0.635" stroke-miterlimit="10"/>
<path d="M319.363 119.981C319.363 119.981 344.256 113.034 361.236 111.505C372.355 110.518 372.086 112.463 384.41 112.66C398.647 112.901 412.035 111.84 430.395 111.913C432.318 111.901 434.131 112.033 435.866 112.138C467.113 113.914 449.119 122.883 480.021 121.49C509.75 120.122 530.495 117.166 549.522 120.936C553.392 121.699 556.216 122.709 557.548 124.115C563.434 130.347 559.765 138.151 551.262 146.363C549.754 147.772 548.127 149.379 545.897 151.083C531.241 162.373 517.322 170.978 525.2 177.28C532.058 182.761 546.334 181.4 566.339 180.23C580.771 179.4 594.421 177.35 609.448 177.379C610.365 177.388 611.361 177.424 612.278 177.433C635.924 177.369 658.3 172.329 687.377 169.484C695.794 168.665 702.982 168.63 709.172 169.037C732.217 170.447 739.364 169.26 735.98 178.717C732.617 188.061 728.255 188.628 734.078 197.053C738.25 203.066 758.13 199.82 751.026 208.144C737.058 224.395 730.679 230.568 721.286 239.08" stroke="white" stroke-width="0.635" stroke-miterlimit="10"/>
<path d="M321.172 122.445C321.172 122.445 345.72 115.562 362.887 113.916C373.938 112.847 374.114 114.642 386.538 114.752C400.874 114.908 414.35 113.816 432.443 113.979C434.445 113.994 436.259 114.125 437.993 114.23C469.209 116.176 450.839 125.378 481.04 124.168C510.146 123.008 530.971 120.08 549.85 123.74C553.72 124.503 556.465 125.487 557.797 126.893C563.605 133.098 560.114 140.842 551.888 148.908C550.469 150.287 548.841 151.894 546.701 153.568C532.5 164.652 518.67 173.227 526.636 179.5C533.504 184.924 547.761 183.675 567.765 182.506C582.197 181.676 595.679 179.629 610.884 179.598C611.801 179.607 612.797 179.643 613.803 179.622C637.637 179.442 660.181 174.399 688.913 171.617C697.329 170.798 704.507 170.819 710.697 171.226C733.633 172.779 740.502 171.739 736.852 181.285C733.311 190.689 728.85 191.342 734.851 199.707C739.18 205.774 759.673 202.374 752.47 210.785C738.789 226.833 732.645 233.086 723.017 241.518" stroke="white" stroke-width="0.635" stroke-miterlimit="10"/>
<path d="M323.586 124.757C323.586 124.757 347.71 117.91 365.066 116.148C376.127 115.022 376.836 116.638 389.102 116.695C403.538 116.764 417.103 115.643 434.84 115.925C436.753 115.97 438.567 116.102 440.301 116.207C471.476 118.378 452.741 127.756 482.319 126.755C510.713 125.835 531.794 122.873 550.349 126.484C554.14 127.221 556.885 128.205 558.138 129.584C563.867 135.762 560.475 143.42 552.605 151.367C551.186 152.745 549.648 154.323 547.507 155.997C533.593 166.878 520.109 175.39 528.243 181.659C535.2 187.053 549.357 185.891 569.362 184.722C583.625 183.895 597.276 181.844 612.491 181.757C613.497 181.736 614.404 181.802 615.41 181.781C639.6 181.482 662.143 176.438 690.608 173.746C699.025 172.927 706.282 172.975 712.461 173.438C735.12 175.137 741.712 174.243 737.973 183.82C734.165 193.313 729.694 194.023 735.952 202.355C740.606 208.471 761.375 204.925 754.251 213.362C740.858 229.207 734.872 235.513 725.175 243.863" stroke="white" stroke-width="0.635" stroke-miterlimit="10"/>
<path d="M326.722 126.828C326.722 126.828 350.589 120.014 367.965 118.14C378.958 116.931 380.112 118.397 392.477 118.368C406.933 118.324 420.666 117.199 438.137 117.572C440.049 117.617 441.863 117.748 443.588 117.909C474.643 120.28 455.541 129.834 484.487 129.099C512.18 128.363 533.418 125.454 551.736 128.984C555.528 129.722 558.194 130.679 559.447 132.058C565.009 138.24 561.973 145.778 554.29 153.609C552.96 154.957 551.422 156.534 549.37 158.178C535.911 168.854 522.605 177.305 530.739 183.575C537.785 188.939 551.932 187.833 571.769 186.668C585.954 185.814 599.594 183.82 614.908 183.646C615.914 183.626 616.91 183.661 617.748 183.644C642.126 183.228 664.838 178.181 692.957 175.553C701.363 174.79 708.542 174.811 714.8 175.301C737.349 177.143 743.665 176.395 739.659 186.061C735.584 195.645 731.102 196.411 737.627 204.653C742.439 210.822 763.653 207.126 756.597 215.646C743.659 231.285 737.652 237.704 727.897 245.915" stroke="white" stroke-width="0.635" stroke-miterlimit="10"/>
<path d="M330.63 128.743C330.63 128.743 354.152 121.993 371.637 119.976C382.64 118.711 384.239 120.027 396.625 119.885C411.18 119.755 425.081 118.627 442.206 119.062C444.118 119.107 445.843 119.269 447.656 119.4C478.671 121.996 459.203 131.726 487.526 131.202C514.508 130.704 536.003 127.762 554.074 131.269C557.787 131.98 560.532 132.964 561.707 134.317C567.189 140.472 564.252 147.924 556.926 155.635C555.596 156.983 554.146 158.53 552.095 160.174C539.012 170.617 525.962 179.036 534.185 185.275C541.231 190.639 555.368 189.59 575.294 188.394C589.39 187.571 603.03 185.577 618.443 185.317C619.449 185.296 620.366 185.305 621.372 185.285C646.017 184.779 668.817 179.702 696.591 177.136C704.997 176.374 712.255 176.422 718.335 176.971C740.696 178.93 746.813 178.354 742.54 188.11C738.199 197.784 733.796 198.576 740.488 206.815C745.625 213.033 767.195 209.218 760.218 217.764C747.567 233.201 741.717 239.673 731.894 247.8" stroke="white" stroke-width="0.635" stroke-miterlimit="10"/>
<path d="M335.428 130.416C335.428 130.416 358.603 123.729 376.198 121.569C387.211 120.247 389.265 121.357 401.572 121.189C416.226 120.973 430.216 119.814 447.074 120.34C448.987 120.385 450.79 120.573 452.515 120.734C483.321 123.559 463.576 133.436 491.355 133.147C517.714 132.859 539.288 129.943 557.123 133.371C560.836 134.082 563.502 135.039 564.677 136.392C570.081 142.521 567.411 149.883 560.272 157.477C559.031 158.796 557.582 160.343 555.619 161.957C542.991 172.194 530.03 180.582 538.421 186.818C545.556 192.152 559.515 191.163 579.519 189.994C593.537 189.144 607.255 187.176 622.679 186.86C623.685 186.839 624.602 186.849 625.608 186.828C650.53 186.176 673.409 181.125 700.838 178.623C709.244 177.861 716.412 177.938 722.65 178.541C744.812 180.672 750.742 180.213 746.212 190.003C741.693 199.735 737.112 200.588 744.061 208.793C749.434 215.091 771.369 211.099 764.382 219.703C752.018 234.937 746.405 241.488 736.345 249.536" stroke="white" stroke-width="0.635" stroke-miterlimit="10"/>
<path d="M341.166 131.928C341.166 131.928 363.917 125.278 381.779 123.028C392.723 121.623 395.301 122.61 407.628 122.329C422.381 122.027 436.371 120.868 453.041 121.51C455.033 121.582 456.668 121.773 458.393 121.934C489.079 124.958 469.047 135.038 496.036 134.962C521.605 134.887 543.514 131.964 561.024 135.343C564.659 136.027 567.325 136.984 568.499 138.337C573.746 144.413 571.332 151.742 564.471 159.19C563.23 160.508 561.869 162.026 559.828 163.613C547.487 173.647 534.95 181.999 543.351 188.178C550.575 193.483 564.435 192.58 584.439 191.411C598.368 190.591 612.087 188.623 627.61 188.22C628.616 188.199 629.533 188.209 630.538 188.188C655.648 187.42 678.695 182.366 705.857 179.954C714.263 179.191 721.51 179.295 727.659 179.928C749.633 182.175 755.285 181.862 750.568 191.768C745.782 201.591 741.191 202.5 748.485 210.641C754.104 216.962 776.485 212.821 769.566 221.507C757.578 236.509 751.945 243.173 741.905 251.108" stroke="white" stroke-width="0.635" stroke-miterlimit="10"/>
<path d="M347.96 133.138C347.96 133.138 370.366 126.551 388.338 124.158C399.292 122.697 402.235 123.508 414.573 123.17C429.347 122.755 443.504 121.593 459.908 122.325C461.81 122.426 463.535 122.587 465.17 122.779C495.816 126.029 475.339 136.258 501.784 136.418C526.73 136.552 548.718 133.656 566.081 136.925C569.716 137.609 572.303 138.54 573.399 139.867C578.567 145.916 576.252 153.158 569.668 160.46C568.516 161.749 567.077 163.24 565.203 164.824C553.317 174.652 540.958 182.943 549.438 189.149C556.672 194.397 570.511 193.607 590.437 192.412C604.287 191.565 617.995 189.654 633.617 189.165C634.623 189.144 635.629 189.124 636.635 189.103C662.101 188.215 685.148 183.161 711.964 180.812C720.448 180.076 727.606 180.21 733.755 180.843C755.621 183.233 760.996 183.066 755.933 193.035C750.88 202.948 746.279 203.913 753.75 211.995C759.695 218.365 782.431 214.104 775.502 222.847C763.802 237.646 758.404 244.389 748.218 252.215" stroke="white" stroke-width="0.635" stroke-miterlimit="10"/>
<path d="M355.805 134.101C355.805 134.101 377.955 127.548 395.947 125.042C406.911 123.525 410.388 124.156 422.657 123.736C437.53 123.234 451.777 122.042 467.913 122.863C469.815 122.965 471.53 123.182 473.254 123.344C503.78 126.793 482.927 137.254 508.839 137.594C533.162 137.938 555.318 135.038 572.356 138.258C575.912 138.916 578.499 139.846 579.595 141.173C584.684 147.196 582.636 154.348 576.24 161.534C575.088 162.822 573.738 164.284 571.864 165.868C560.354 175.463 548.252 183.722 556.821 189.898C564.054 195.145 577.884 194.412 597.899 193.186C611.659 192.37 625.378 190.402 641.089 189.883C642.095 189.862 643.101 189.842 644.028 189.795C669.682 188.79 692.897 183.733 719.367 181.447C727.852 180.711 735.01 180.845 741.138 181.591C762.894 184.123 767.992 184.103 762.662 194.162C757.432 204.134 752.731 205.186 760.47 213.178C766.572 219.602 789.753 215.191 782.981 223.987C771.568 238.583 766.239 245.409 756.073 253.122" stroke="white" stroke-width="0.635" stroke-miterlimit="10"/>
<path d="M365.927 134.933C365.927 134.933 387.731 128.443 405.832 125.795C416.807 124.221 420.65 124.676 433.018 124.169C447.99 123.581 462.325 122.36 478.195 123.271C480.097 123.372 481.812 123.59 483.447 123.781C513.932 127.456 492.635 138.067 517.913 138.673C541.447 139.23 563.849 136.353 580.651 139.493C584.206 140.151 586.715 141.055 587.811 142.382C592.821 148.378 590.873 155.444 584.832 162.51C583.769 163.769 582.419 165.23 580.545 166.814C569.402 176.233 557.566 184.402 566.213 190.604C573.536 195.822 587.355 195.145 607.281 193.949C620.874 193.136 634.671 191.195 650.482 190.59C651.488 190.569 652.494 190.548 653.421 190.501C679.352 189.351 702.645 184.32 728.77 182.097C737.255 181.361 744.402 181.552 750.531 182.297C772.01 184.976 776.92 185.072 771.491 195.217C765.993 205.28 761.371 206.358 769.278 214.347C775.705 220.819 799.163 216.263 792.381 225.115C781.344 239.478 776.162 246.414 765.681 254.021" stroke="white" stroke-width="0.635" stroke-miterlimit="10"/>
<path d="M377.208 135.798C377.208 135.798 398.666 129.371 416.877 126.58C427.783 124.923 432.149 125.255 444.449 124.665C459.442 123.964 473.856 122.769 489.547 123.74C491.45 123.841 493.075 124.089 494.79 124.307C525.155 128.181 503.57 138.995 528.147 139.783C551.058 140.55 573.628 137.669 590.105 140.76C593.66 141.418 596.09 142.296 597.186 143.622C602.118 149.592 600.347 156.598 594.584 163.518C593.521 164.777 592.259 166.208 590.474 167.762C579.707 176.949 568.039 185.114 576.864 191.257C584.276 196.445 597.996 195.854 617.922 194.658C631.515 193.845 645.223 191.934 661.133 191.242C662.139 191.221 663.145 191.201 664.161 191.124C690.28 189.857 713.741 184.822 739.51 182.72C747.984 182.04 755.221 182.201 761.339 183.003C782.709 185.824 787.342 186.067 781.567 196.275C775.803 206.427 771.092 207.535 779.255 215.49C786.007 222.013 809.821 217.337 803.118 226.215C792.447 240.402 787.344 247.365 776.794 254.889" stroke="white" stroke-width="0.635" stroke-miterlimit="10"/>
<path d="M389.004 136.595C389.004 136.595 410.117 130.232 428.515 127.325C439.432 125.611 444.253 125.737 456.563 125.091C471.655 124.304 486.158 123.079 501.494 124.169C503.307 124.301 505.1 124.545 506.647 124.766C536.883 128.896 514.942 139.829 538.976 140.854C561.185 141.803 583.912 138.976 600.232 142.014C603.709 142.645 606.217 143.549 607.156 144.823C612.008 150.766 610.505 157.683 604.93 164.486C603.955 165.715 602.694 167.146 600.909 168.7C590.597 177.681 579.107 185.786 588.011 191.955C595.511 197.113 609.132 196.609 629.058 195.413C642.483 194.604 656.359 192.689 672.279 191.941C673.285 191.92 674.301 191.843 675.307 191.822C701.782 190.436 725.242 185.401 750.666 183.362C759.141 182.682 766.288 182.873 772.396 183.731C793.578 186.669 798.012 187.084 791.971 197.382C785.94 207.624 781.219 208.789 789.728 216.681C796.726 223.226 820.896 218.43 814.261 227.391C803.877 241.376 798.921 248.448 788.314 255.833" stroke="white" stroke-width="0.635" stroke-miterlimit="10"/>
<path d="M401.141 137.387C401.141 137.387 421.83 131.06 440.416 128.037C451.432 126.237 456.609 126.243 468.851 125.514C484.042 124.64 498.712 123.412 513.703 124.566C515.595 124.724 517.309 124.941 518.935 125.189C549.051 129.518 526.823 140.654 550.145 141.918C571.643 143.107 594.538 140.276 610.621 143.235C614.098 143.866 616.528 144.744 617.466 146.017C622.24 151.934 620.836 158.764 615.616 165.448C614.642 166.676 613.469 168.078 611.774 169.602C601.748 178.38 590.683 186.448 599.597 192.561C607.097 197.719 620.708 197.271 640.555 196.049C653.902 195.213 667.768 193.355 683.786 192.52C684.803 192.443 685.809 192.422 686.814 192.402C713.566 190.869 737.106 185.861 762.184 183.885C770.658 183.205 777.885 183.422 783.904 184.311C804.976 187.392 809.134 187.953 802.825 198.341C796.616 208.642 791.885 209.864 800.483 217.725C807.717 224.35 832.253 219.378 825.608 228.396C815.512 242.178 810.713 249.303 800.037 256.604" stroke="white" stroke-width="0.635" stroke-miterlimit="10"/>
<path d="M413.373 138.091C413.373 138.091 433.716 131.828 452.324 128.692C463.35 126.835 468.893 126.665 481.233 125.85C496.445 124.863 511.194 123.661 526.085 124.902C527.977 125.06 529.603 125.307 531.228 125.555C561.225 130.083 538.631 141.395 561.409 142.895C582.206 144.267 605.426 141.486 621.105 144.368C624.503 144.973 626.933 145.851 627.872 147.124C632.478 153.044 631.34 159.785 626.398 166.323C625.513 167.521 624.34 168.922 622.644 170.447C613.074 179.019 602.097 187.057 611.179 193.167C618.69 198.268 632.28 197.933 652.216 196.681C665.474 195.875 679.339 194.016 695.458 193.096C696.474 193.018 697.48 192.998 698.496 192.921C725.435 191.272 749.143 186.26 773.875 184.348C782.429 183.694 789.487 183.915 795.664 184.856C816.548 188.053 820.428 188.761 813.942 199.208C807.467 209.6 802.725 210.878 811.501 218.68C819.06 225.354 843.962 220.206 837.386 229.306C827.665 242.856 822.925 250.12 812.101 257.312" stroke="white" stroke-width="0.635" stroke-miterlimit="10"/>
<path d="M425.773 138.792C425.773 138.792 445.859 132.562 464.487 129.313C475.445 127.374 481.6 127.051 493.783 126.183C509.183 125.08 523.932 123.878 538.556 125.208C540.449 125.366 542.153 125.64 543.61 125.891C573.477 130.674 550.606 142.133 572.762 143.842C592.936 145.424 616.235 142.669 631.767 145.442C635.165 146.047 637.516 146.898 638.455 148.172C642.982 154.065 642.112 160.716 637.357 167.137C636.472 168.336 635.388 169.707 633.781 171.202C624.587 179.541 613.867 187.546 622.949 193.656C630.548 198.727 644.039 198.479 663.975 197.226C677.154 196.394 691.099 194.562 707.227 193.585C708.244 193.508 709.249 193.487 710.266 193.41C737.482 191.615 761.268 186.63 785.734 184.807C794.288 184.154 801.425 184.401 807.513 185.372C828.287 188.712 831.891 189.565 825.138 200.103C818.395 210.584 813.644 211.918 822.764 219.657C830.571 226.354 855.828 221.086 849.32 230.27C839.887 243.617 835.304 250.934 824.412 258.043" stroke="white" stroke-width="0.635" stroke-miterlimit="10"/>
<path d="M438.35 139.434C438.35 139.434 458.09 133.267 476.827 129.875C487.795 127.88 494.316 127.38 506.599 126.426C522.019 125.21 536.847 124.034 551.293 125.424C553.097 125.612 554.801 125.886 556.426 126.134C586.173 131.117 562.936 142.751 584.38 144.7C603.854 146.465 627.398 143.733 642.606 146.457C645.925 147.035 648.276 147.886 649.215 149.16C653.664 155.027 652.892 161.591 648.493 167.893C647.697 169.062 646.613 170.433 644.928 171.901C636.1 180.064 625.646 187.979 634.896 194.085C642.584 199.127 656.065 198.935 675.912 197.712C689.002 196.91 702.947 195.078 719.174 194.014C720.19 193.937 721.196 193.917 722.212 193.839C749.617 191.928 773.65 186.966 797.691 185.18C806.245 184.527 813.461 184.8 819.37 185.831C839.868 189.317 843.283 190.287 836.342 200.941C829.333 211.512 824.581 212.846 833.87 220.581C842.001 227.329 867.614 221.941 861.185 231.151C852.039 244.295 847.693 251.692 836.653 258.692" stroke="white" stroke-width="0.635" stroke-miterlimit="10"/>
<path d="M450.772 140.022C450.772 140.022 470.167 133.919 489.092 130.411C500.07 128.358 507.036 127.71 519.339 126.642C534.858 125.34 549.775 124.135 563.866 125.644C565.669 125.832 567.373 126.106 568.91 126.384C598.537 131.566 575.023 143.347 595.834 145.562C614.596 147.566 638.309 144.831 653.28 147.474C656.599 148.053 658.871 148.877 659.731 150.125C664.101 155.965 663.597 162.44 659.307 168.599C658.511 169.767 657.438 171.082 655.831 172.577C647.379 180.507 637.182 188.389 646.431 194.495C654.12 199.537 667.59 199.401 687.438 198.179C700.449 197.35 714.305 195.548 730.71 194.424C731.726 194.347 732.821 194.296 733.837 194.219C761.519 192.162 785.63 187.226 809.326 185.503C817.869 184.907 825.007 185.154 831.074 186.238C851.462 189.867 854.6 190.983 847.403 201.67C840.127 212.331 835.365 213.721 844.91 221.423C853.366 228.22 879.256 222.686 872.817 231.952C863.958 244.894 859.68 252.373 848.661 259.26" stroke="white" stroke-width="0.635" stroke-miterlimit="10"/>
<path d="M462.946 140.587C462.946 140.587 481.996 134.547 501.031 130.896C512.019 128.788 519.44 127.933 531.664 126.839C547.282 125.45 562.199 124.245 576.112 125.814C577.994 126.029 579.609 126.333 581.146 126.61C610.643 132.048 586.852 143.975 607.041 146.399C625.101 148.586 649.06 145.874 663.785 148.495C667.026 149.047 669.298 149.872 670.158 151.119C674.449 156.933 674.044 163.321 670.11 169.36C669.403 170.499 668.329 171.814 666.811 173.278C658.736 180.976 648.706 188.855 658.213 194.928C665.99 199.939 679.361 199.89 699.219 198.611C712.141 197.812 726.086 195.98 742.501 194.8C743.518 194.723 744.612 194.672 745.629 194.595C773.498 192.421 797.777 187.483 821.128 185.823C829.671 185.226 836.887 185.5 842.865 186.614C863.144 190.385 866.005 191.648 858.541 202.425C851.087 213.145 846.226 214.622 856.038 222.234C864.741 229.054 890.986 223.4 884.704 232.72C876.133 245.459 872.091 253.018 860.836 259.825" stroke="white" stroke-width="0.635" stroke-miterlimit="10"/>
<path d="M474.796 141.103C474.796 141.103 493.589 135.096 512.644 131.332C523.643 129.167 531.429 128.136 543.753 126.956C559.391 125.455 574.476 124.246 588.122 125.905C590.004 126.119 591.619 126.424 593.067 126.731C622.445 132.368 598.288 144.471 617.844 147.161C635.282 149.558 659.319 146.872 673.808 149.414C677.048 149.966 679.321 150.79 680.191 151.981C684.404 157.769 684.176 164.097 680.519 169.99C679.901 171.099 678.828 172.414 677.31 173.878C669.6 181.4 659.837 189.189 669.343 195.261C677.21 200.243 690.482 200.28 710.339 199.001C723.183 198.176 737.118 196.4 753.632 195.134C754.648 195.057 755.665 194.98 756.681 194.903C784.828 192.583 809.185 187.67 832.269 186.1C840.812 185.504 848.018 185.834 853.996 186.947C874.087 190.835 876.671 192.244 869.019 203.137C861.298 213.948 856.437 215.425 866.495 223.06C875.523 229.929 902.045 224.129 895.832 233.531C887.548 246.068 883.664 253.68 872.34 260.404" stroke="white" stroke-width="0.635" stroke-miterlimit="10"/>
</svg>
