<svg xmlns="http://www.w3.org/2000/svg" width="1113" height="518" fill="none"><path stroke="#fff" stroke-miterlimit="10" stroke-width=".635" d="M.214 86.829S72.586 73.307 91.82 78.74c19.082 5.484-18.331 19.525 2.194 27.26s36.267 10.355 98.421-2.314c62.289-12.626 59.762-15.227 168.616-35.563 108.567-20.33 129.552-25.72 184.503-13.875 54.951 11.846 21.293 40.28-40.319 76.009-61.458 35.68-103.583 54.14-97.093 65.454 6.625 11.358 36.402 2.77 71.017 1.296 34.904-1.48 56.703-6.608 77.228 1.127s49.617 2.788 127.458-9.26 121.653-31.845 140.392-20.726c18.892 11.07 31.086 1.247-30.643 44.468-61.594 43.264-73.446 47.451-81.145 70.023"/><path stroke="#fff" stroke-miterlimit="10" stroke-width=".635" d="M2.764 86.267s71.795-13.51 91.2-8.219c19.252 5.341-17.396 19.135 3.011 26.732 19.206 7.11 34.236 9.697 86.191.067q5.809-1.092 12.077-2.332c62.083-12.296 59.062-14.562 166.693-34.5 107.495-19.984 128.769-25.38 183.161-13.617 9.943 2.13 17.05 4.827 21.473 8.042 17.203 12.405-3.76 32.169-41.848 55.898-6.013 3.701-12.349 7.593-19.262 11.497-60.812 35.295-102.495 53.7-95.87 65.058s36.385 2.864 71.154 1.34c32.443-1.384 53.847-5.947 73.453-.194l3.927 1.271c20.696 7.592 50.229 2.591 127.475-9.353 13.755-2.086 26.408-4.429 37.908-6.749 54.067-10.928 86.273-22.494 101.343-13.256 14.428 8.831 24.261 4.684-.511 23.313-6.871 5.206-15.736 11.846-29.149 21.274-60.676 42.967-72.698 47.298-80.497 69.638"/><path stroke="#fff" stroke-miterlimit="10" stroke-width=".635" d="M7.79 85.517s71.507-13.505 90.93-8.307c19.287 5.154-16.902 18.8 3.676 26.254 19.241 6.923 34.424 9.461 86.056.022a817 817 0 0 0 11.923-2.282c61.896-12.059 58.362-13.896 164.787-33.533 106.424-19.636 127.833-24.989 181.819-13.356 9.943 2.129 16.915 4.782 21.202 7.954 17.068 12.36-3.571 31.932-41.2 55.513-6.013 3.7-12.196 7.543-18.957 11.398-60.181 35.003-101.406 53.26-94.627 64.568 6.642 11.265 36.367 2.957 71.135 1.433 32.444-1.384 53.848-5.946 73.471-.287l3.792 1.228c21.155 7.443 50.858 2.298 127.628-9.404a900 900 0 0 0 38.025-6.611c54.015-10.648 85.474-22.06 100.373-12.679 13.969 8.98 23.072 4.893-.393 23.45-6.736 5.25-14.565 11.73-27.843 21.202-59.758 42.67-71.933 47.05-79.85 69.254"/><path stroke="#fff" stroke-miterlimit="10" stroke-width=".635" d="M14.856 84.633s70.93-13.494 90.523-8.438c19.457 5.011-16.12 18.458 4.494 25.726 19.259 6.829 34.612 9.224 85.92-.021 3.72-.679 7.88-1.412 11.906-2.19 61.554-11.773 57.527-13.275 163.015-32.52 105.2-19.24 127.052-24.649 180.613-13.054 9.808 2.085 16.779 4.739 21.067 7.91 16.933 12.317-3.4 31.79-40.553 55.128-5.86 3.651-12.179 7.45-18.803 11.349-59.4 34.662-100.318 52.819-93.404 64.172 6.795 11.215 36.349 3.05 71.118 1.526 32.155-1.378 53.694-5.897 73.488-.38 1.372.345 2.591.739 3.792 1.227 21.325 7.301 51.335 2.057 127.646-9.496 13.754-2.086 26.525-4.292 38.007-6.518 53.81-10.319 84.809-21.582 99.114-12.097 13.51 9.129 21.901 5.01-.564 23.594-6.465 5.337-13.529 11.57-26.689 21.179-58.84 42.372-71.321 46.852-79.356 68.918"/><path stroke="#fff" stroke-miterlimit="10" stroke-width=".635" d="M24.257 83.517s70.488-13.439 90.117-8.57c19.493 4.825-15.473 18.073 5.158 25.248 19.43 6.687 34.8 8.988 85.785-.065 3.72-.678 7.728-1.362 11.906-2.189 61.349-11.444 56.827-12.61 161.092-31.46C482.308 47.544 504.43 42.223 557.739 53.637c9.808 2.085 16.643 4.695 20.931 7.866 16.797 12.274-3.077 31.597-39.906 54.744a1055 1055 0 0 1-18.497 11.249c-58.617 34.321-99.229 52.379-92.163 63.682 6.949 11.166 36.197 3.1 71.101 1.62 32.019-1.422 53.542-5.847 73.506-.474 1.372.345 2.437.789 3.945 1.178 22.549 6.904 51.947 1.859 127.51-9.54a1148 1148 0 0 0 37.837-6.375c53.468-10.033 84.144-21.104 97.99-11.47 13.204 9.228 20.712 5.22-.735 23.737-6.193 5.425-12.204 11.404-25.517 21.062-57.922 42.076-70.421 46.648-78.709 68.534"/><path stroke="#fff" stroke-miterlimit="10" stroke-width=".635" d="M35.414 82.274s69.911-13.427 89.557-8.652c19.528 4.638-14.69 17.732 5.976 24.72 19.312 6.55 34.989 8.752 85.497-.06 3.719-.677 7.727-1.361 11.888-2.095 61.143-11.114 56.28-11.995 159.321-30.448 102.922-18.59 125.333-23.917 178.082-12.585 9.672 2.041 16.508 4.65 20.796 7.822 16.661 12.23-3.042 31.41-39.259 54.359-5.707 3.601-11.873 7.351-18.344 11.2-57.835 33.98-98.005 51.983-90.939 63.286 7.102 11.116 36.332 3.143 71.101 1.62 31.866-1.373 53.542-5.848 73.523-.568 1.372.345 2.591.74 3.945 1.178 23.026 6.662 52.577 1.567 127.528-9.633 13.754-2.086 26.355-4.149 37.955-6.238 53.415-9.753 83.479-20.626 96.866-10.843 12.745 9.377 19.523 5.429-.617 23.874-6.058 5.468-11.033 11.288-24.364 21.04-56.85 41.728-69.655 46.4-78.061 68.148"/><path stroke="#fff" stroke-miterlimit="10" stroke-width=".635" d="M48.467 80.853s69.47-13.372 89.151-8.783c19.546 4.544-14.519 17.59 6.794 24.192 19.941 6.258 35.33 8.466 85.497-.06 3.855-.634 7.574-1.312 11.735-2.045 60.802-10.829 55.58-11.33 157.55-29.437 101.698-18.194 124.397-23.526 176.74-12.326 9.672 2.042 16.508 4.651 20.661 7.779 16.526 12.186-2.872 31.267-38.612 53.973a980 980 0 0 1-18.038 11.101c-57.052 33.639-96.917 51.543-89.697 62.797 7.254 11.066 36.314 3.237 71.083 1.713 31.731-1.417 53.253-5.842 73.541-.661 1.372.345 2.59.74 3.945 1.178 23.485 6.514 53.053 1.325 127.681-9.683a1265 1265 0 0 0 37.937-6.145c53.074-9.466 82.832-20.24 95.76-10.309 12.439 9.476 18.622 5.633-.787 24.017-5.941 5.606-9.863 11.172-23.058 20.968-55.933 41.431-68.908 46.245-77.414 67.763"/><path stroke="#fff" stroke-miterlimit="10" stroke-width=".635" d="M62.978 79.31s68.893-13.36 88.88-8.87c19.581 4.357-13.872 17.204 7.459 23.714 20.112 6.115 35.518 8.229 85.361-.104 3.855-.634 7.71-1.268 11.871-2.002 60.749-10.548 54.727-10.615 155.49-28.419 100.763-17.803 123.615-23.185 175.399-12.067 9.537 1.998 16.373 4.607 20.39 7.69 16.391 12.143-2.683 31.032-37.965 53.59-5.554 3.551-11.566 7.252-17.885 11.051-56.269 33.298-95.981 51.153-88.473 62.4 7.255 11.067 36.297 3.331 71.065 1.807 31.579-1.368 53.254-5.842 73.559-.754 1.372.345 2.591.739 3.962 1.084 22.721 6.762 53.666 1.127 127.699-9.776 13.737-1.992 26.473-4.011 37.92-6.051 52.733-9.181 82.167-19.763 94.636-9.683 11.98 9.625 17.434 5.843-.823 24.204-5.669 5.693-8.673 10.962-22.038 20.901-55.151 41.09-68.144 45.998-76.921 67.428"/><path stroke="#fff" stroke-miterlimit="10" stroke-width=".635" d="M79.075 77.784s68.316-13.35 88.473-9.003c19.752 4.215-12.63 16.715 8.277 23.187 19.671 6.17 35.706 7.993 85.226-.148 3.702-.584 7.71-1.268 11.718-1.952 60.407-10.262 54.027-9.95 153.719-27.407 99.539-17.408 122.679-22.795 174.057-11.808 9.537 1.998 16.237 4.563 20.254 7.647 16.255 12.098-2.648 30.844-37.317 53.204a753 753 0 0 1-17.733 11.001c-55.639 33.007-94.892 50.713-87.231 61.911 7.408 11.017 36.279 3.424 71.048 1.9 31.443-1.411 53.1-5.792 73.576-.847 1.372.345 2.591.739 3.963 1.084 23.043 6.569 54.294.836 127.716-9.87 13.737-1.992 26.608-3.967 37.884-5.864 52.528-8.851 81.503-19.284 93.377-9.1 11.522 9.774 16.245 6.052-.84 24.297-5.399 5.781-7.502 10.846-20.732 20.829-54.232 40.793-67.243 45.794-76.273 67.043"/><path stroke="#fff" stroke-miterlimit="10" stroke-width=".635" d="M96.625 76.135S164.5 62.84 184.692 67c19.787 4.028-11.983 16.33 8.942 22.708 19.841 6.027 35.894 7.757 84.937-.142 3.702-.584 7.557-1.219 11.7-1.859 60.202-9.933 53.328-9.285 151.949-26.395 98.485-17.154 121.896-22.454 172.868-11.599 9.537 1.998 16.102 4.52 20.119 7.603 16.12 12.055-2.613 30.658-36.671 52.82-5.4 3.502-11.26 7.152-17.426 10.902-54.857 32.666-93.803 50.273-86.007 61.515 7.561 10.967 36.262 3.517 71.048 1.9 31.289-1.362 53.1-5.793 73.594-.941 1.371.345 2.743.69 3.962 1.084 23.35 6.47 54.771.594 127.734-9.963 13.737-1.992 26.59-3.874 37.867-5.771 52.339-8.615 80.837-18.806 92.406-8.522 11.215 9.872 15.344 6.255-.875 24.483-5.264 5.825-6.331 10.731-19.579 20.806-53.314 40.496-66.631 45.597-75.626 66.659"/><path stroke="#fff" stroke-miterlimit="10" stroke-width=".635" d="M115.195 74.42s67.298-13.283 87.661-9.266c19.822 3.841-11.2 15.99 9.759 22.18 19.724 5.89 36.218 7.565 84.802-.185 3.702-.585 7.557-1.22 11.547-1.81 60.149-9.652 52.628-8.62 150.025-25.334S580.238 37.937 630.65 48.71c9.402 1.954 15.967 4.476 19.984 7.56 15.984 12.01-2.443 30.515-36.159 52.39-5.401 3.502-11.107 7.104-17.408 10.81-54.075 32.324-92.58 49.876-84.766 61.024 7.578 10.874 36.397 3.561 71.03 1.994 31.001-1.356 52.947-5.743 73.612-1.035 1.371.345 2.608.647 4.115 1.035 23.673 6.278 55.383.396 127.887-10.013 13.737-1.992 26.59-3.873 37.985-5.633 51.997-8.329 80.037-18.372 91.282-7.895 10.756 10.02 14.291 6.509-.893 24.576-4.993 5.913-5.007 10.565-18.425 20.784-52.532 40.155-65.73 45.392-74.978 66.273"/><path stroke="#fff" stroke-miterlimit="10" stroke-width=".635" d="M134.896 72.774s66.721-13.271 87.255-9.397c19.839 3.748-10.553 15.604 10.577 21.652 19.894 5.748 36.406 7.329 84.666-.229 3.702-.584 7.54-1.125 11.548-1.81 59.808-9.366 51.927-7.955 148.253-24.322 96.173-16.317 120.314-21.678 170.32-11.036 9.401 1.954 15.831 4.432 19.712 7.471 15.85 11.967-2.254 30.279-35.511 52.006a444 444 0 0 1-17.103 10.71c-53.291 31.984-91.49 49.436-83.541 60.628 7.731 10.825 36.379 3.655 71.012 2.087 31.002-1.356 52.795-5.693 73.63-1.127q1.854.451 4.115 1.035c23.979 6.178 55.86.153 127.904-10.107 13.872-1.948 26.573-3.78 37.968-5.54 51.792-7.999 79.372-17.893 90.023-7.312 10.297 10.169 13.39 6.713-1.064 24.72-4.722 6-3.97 10.404-17.253 20.667-51.614 39.857-65.119 45.194-74.62 65.894"/><path stroke="#fff" stroke-miterlimit="10" stroke-width=".635" d="M155.471 71.113s66.28-13.216 86.984-9.485c19.875 3.561-9.77 15.263 11.242 21.174 20.065 5.604 36.747 7.043 84.667-.229 3.702-.585 7.539-1.126 11.529-1.716 59.467-9.081 51.092-7.334 146.347-23.355 94.814-15.965 119.243-21.331 168.825-10.728 9.113 1.96 15.696 4.388 19.577 7.428 15.714 11.923-2.083 30.136-34.864 51.621-5.248 3.452-10.801 7.004-16.949 10.66-52.509 31.643-90.403 48.996-82.3 60.139 7.884 10.775 36.361 3.748 70.994 2.18 30.713-1.35 52.795-5.693 73.647-1.221 1.39.252 2.608.646 3.98.991 24.438 6.03 56.625-.094 127.922-10.199 13.872-1.949 26.556-3.687 37.797-5.398 51.604-7.763 78.708-17.414 88.899-6.685 9.991 10.268 12.337 6.966-1.098 24.907-4.604 6.137-2.647 10.238-16.1 20.644-50.831 39.517-64.218 44.99-73.973 65.509"/><path stroke="#fff" stroke-miterlimit="10" stroke-width=".635" d="M176.888 69.527s65.702-13.205 86.578-9.617c19.909 3.375-8.989 14.923 12.059 20.647 20.082 5.511 36.935 6.806 84.531-.273 3.549-.535 7.386-1.076 11.377-1.666 59.396-8.708 50.392-6.67 144.423-22.294 93.743-15.618 118.307-20.94 167.636-10.518 9.113 1.96 15.696 4.388 19.595 7.334 15.578 11.88-2.049 29.949-34.217 51.236a416 416 0 0 1-16.644 10.561c-51.879 31.351-89.314 48.556-81.076 59.743 7.884 10.775 36.344 3.841 71.13 2.224 30.578-1.394 52.506-5.688 73.665-1.315 1.389.252 2.608.647 4.133.942 24.744 5.931 57.101-.336 127.939-10.293 13.872-1.948 26.691-3.643 37.915-5.26 51.262-7.477 78.043-16.937 87.929-6.108 9.532 10.417 11.436 7.17-1.117 25-4.333 6.225-1.475 10.122-14.793 20.572-49.913 39.219-63.453 44.743-73.326 65.124"/><path stroke="#fff" stroke-miterlimit="10" stroke-width=".635" d="M198.883 67.93s65.126-13.193 86.172-9.748c20.08 3.232-8.341 14.538 12.724 20.169 20.253 5.368 37.123 6.57 84.243-.268 3.549-.535 7.521-1.032 11.512-1.622 59.208-8.472 49.692-6.005 142.652-21.282 92.672-15.272 117.66-20.556 166.294-10.26 8.978 1.916 15.561 4.345 19.46 7.291 15.442 11.835-1.725 29.756-33.57 50.851-4.942 3.354-10.496 6.905-16.491 10.512-51.232 30.966-88.378 48.165-79.834 59.253 8.037 10.725 36.326 3.934 70.977 2.273 30.578-1.394 52.506-5.687 73.682-1.407 1.389.251 2.761.596 4.133.941 25.068 5.738 57.713-.534 128.093-10.342 13.872-1.949 26.673-3.55 37.896-5.167 50.922-7.192 77.243-16.502 86.67-5.525 9.074 10.566 10.384 7.423-1.151 25.187-4.063 6.313-.44 9.962-13.775 20.505-49.131 38.878-62.706 44.588-72.679 64.74"/><path stroke="#fff" stroke-miterlimit="10" stroke-width=".635" d="M221.133 66.514s64.396-13.132 85.765-9.88c19.963 3.095-7.558 14.197 13.542 19.641 20.288 5.182 37.312 6.334 84.107-.31 3.549-.536 7.369-.984 11.359-1.574 59.003-8.142 48.993-5.34 140.729-20.22 91.6-14.925 116.724-20.166 164.952-10 8.978 1.915 15.425 4.3 19.324 7.246 15.307 11.791-1.69 29.57-32.923 50.466a353 353 0 0 1-16.337 10.462c-50.45 30.625-87.154 47.769-78.611 58.857 8.191 10.676 36.327 3.934 70.96 2.367 30.289-1.389 52.353-5.638 73.7-1.501 1.389.251 2.761.596 4.132.941 25.527 5.59 58.191-.776 127.958-10.386 13.872-1.948 26.673-3.55 37.879-5.074 50.716-6.861 76.581-16.023 85.541-4.898 8.62 10.715 9.49 7.628-1.32 25.33-3.79 6.401.89 9.797-12.466 20.433-48.365 38.631-61.94 44.341-72.184 64.405"/><path stroke="#fff" stroke-miterlimit="10" stroke-width=".635" d="M243.94 65.18s63.955-13.077 85.359-10.01c19.998 2.907-6.911 13.81 14.207 19.162 20.305 5.088 37.653 6.047 83.972-.355 3.684-.492 7.369-.983 11.341-1.48 58.95-7.862 48.293-4.674 139.111-19.258 90.376-14.529 115.942-19.824 163.745-9.698 8.843 1.872 15.29 4.257 19.054 7.16 15.172 11.747-1.519 29.426-32.276 50.08-4.924 3.261-10.189 6.807-16.031 10.364-49.668 30.284-86.066 47.329-77.369 58.367 8.343 10.626 36.309 4.027 70.942 2.46 30.154-1.432 52.2-5.589 73.717-1.594 1.389.251 2.761.596 4.286.892 25.833 5.49 58.955-1.024 127.975-10.48 14.007-1.905 26.655-3.457 37.844-4.887 50.523-6.625 75.913-15.545 84.423-4.271 8.31 10.813 8.56 7.924-1.21 25.467-3.67 6.538 2.06 9.681-11.31 20.41-47.583 38.29-61.193 44.187-71.537 64.02"/><path stroke="#fff" stroke-miterlimit="10" stroke-width=".635" d="M266.865 63.983s63.377-13.065 85.088-10.098c20.168 2.765-6.129 13.47 15.025 18.634 20.476 4.945 37.84 5.812 83.836-.399 3.684-.49 7.369-.982 11.188-1.43 58.744-7.532 47.593-4.01 137.051-18.24C688.359 38.266 714.06 33.015 761.61 42.96c8.843 1.873 15.155 4.213 18.918 7.116 15.037 11.704-1.331 29.19-31.628 49.696-4.924 3.26-10.037 6.757-15.879 10.314-48.884 29.943-84.977 46.889-76.144 57.971 8.496 10.577 36.291 4.121 71.077 2.504 30.001-1.383 52.2-5.589 73.735-1.688 1.389.251 2.761.596 4.15.848 26.292 5.342 59.432-1.266 127.993-10.573 13.854-1.855 26.638-3.363 37.826-4.794 50.182-6.339 75.252-15.067 83.312-3.737 7.85 10.962 7.67 8.128-1.37 25.61-3.4 6.625 3.09 9.52-10.14 20.294-46.805 37.948-60.432 43.939-70.894 63.634"/><path stroke="#fff" stroke-miterlimit="10" stroke-width=".635" d="M289.754 62.973s62.801-13.054 84.682-10.23c20.051 2.627-5.499 13.179 15.842 18.106 20.494 4.852 38.165 5.62 83.701-.442 3.532-.442 7.352-.89 11.189-1.43 58.403-7.247 46.892-3.345 135.127-17.18s114.224-19.093 161.215-9.229c8.842 1.872 15.019 4.169 18.782 7.072 14.902 11.66-1.16 29.047-30.981 49.31-4.771 3.211-9.883 6.708-15.572 10.216-48.102 29.602-83.889 46.448-74.903 57.481 8.513 10.483 36.274 4.214 71.06 2.597 29.865-1.427 52.047-5.539 73.752-1.781 1.389.252 2.761.597 4.15.848 26.616 5.15 60.044-1.464 128.146-10.623 13.854-1.855 26.773-3.319 37.809-4.7 49.847-6.053 74.447-14.632 82.187-3.11 7.39 11.11 6.9 8.375-1.54 25.752-3.13 6.714 4.42 9.355-8.99 20.272-45.88 37.651-59.53 43.735-70.243 63.249"/><path stroke="#fff" stroke-miterlimit="10" stroke-width=".635" d="M312.61 62.15s62.224-13.043 84.276-10.362c20.085 2.44-4.852 12.794 16.507 17.629 20.664 4.708 38.352 5.382 83.548-.394 3.531-.441 7.351-.89 11.17-1.337 58.35-6.966 46.058-2.723 133.357-16.167 87.01-13.44 113.288-18.702 159.873-8.97 8.707 1.828 15.019 4.169 18.647 7.027 14.766 11.617-1.125 28.861-30.47 48.883-4.771 3.211-9.865 6.614-15.555 10.122-47.472 29.31-82.799 46.008-73.679 57.084 8.514 10.484 36.257 4.308 70.907 2.647 29.712-1.377 51.759-5.533 73.77-1.874 1.389.251 2.626.552 4.304.798 26.921 5.051 60.52-1.706 128.162-10.716 13.855-1.855 26.623-3.27 37.773-4.513 49.51-5.768 73.79-14.155 81.07-2.484 7.08 11.21 6.13 8.624-1.43 25.89-2.86 6.801 5.59 9.239-7.68 20.199-45.1 37.31-58.92 43.537-69.75 62.914"/><path stroke="#fff" stroke-miterlimit="10" stroke-width=".635" d="M335.144 61.52s61.648-13.032 83.717-10.444c19.968 2.303-4.069 12.453 17.325 17.1 20.834 4.566 38.54 5.147 83.412-.437 3.532-.441 7.198-.84 11.018-1.287 58.144-6.636 45.357-2.058 131.585-15.156 85.94-13.092 112.506-18.36 158.532-8.71 8.707 1.828 14.883 4.124 18.376 6.94 14.63 11.571-.802 28.667-29.822 48.497-4.618 3.161-9.713 6.564-15.249 10.022-46.69 28.97-81.729 45.662-72.438 56.595 8.667 10.435 36.392 4.352 70.889 2.741 29.577-1.421 51.759-5.534 73.788-1.968 1.389.251 2.779.503 4.303.799 27.381 4.901 61.286-1.954 128.181-10.81 13.859-1.855 26.759-3.226 37.759-4.42 49.45-5.488 73.12-13.676 79.96-1.95 6.62 11.358 5.22 8.92-1.6 26.033-2.74 6.938 6.62 9.078-6.53 20.176-44.32 36.969-58.01 43.333-69.1 62.529"/><path stroke="#fff" stroke-miterlimit="10" stroke-width=".635" d="M357.199 61.13s61.206-12.976 83.31-10.575c20.139 2.16-3.286 12.112 17.99 16.623 20.717 4.428 38.882 4.86 83.277-.481q5.298-.663 11-1.194c57.939-6.307 44.505-1.344 129.662-14.095 84.715-12.696 111.57-17.97 157.189-8.452 8.572 1.785 14.748 4.081 18.241 6.896 14.495 11.529-.766 28.482-29.175 48.113-4.618 3.161-9.56 6.515-15.096 9.973-45.907 28.628-80.64 45.222-71.349 56.155 8.82 10.385 36.374 4.445 70.872 2.834 29.424-1.372 51.605-5.484 73.805-2.062 1.389.252 2.779.504 4.303.799 27.84 4.753 61.762-2.196 128.202-10.903 13.99-1.811 26.73-3.132 37.87-4.282 49.11-5.202 72.45-13.198 78.84-1.324 6.16 11.507 4.45 9.168-1.63 26.219-2.48 7.026 7.94 8.914-5.36 20.061-43.54 36.628-57.25 43.085-68.46 62.144"/><path stroke="#fff" stroke-miterlimit="10" stroke-width=".635" d="M378.779 60.984s60.476-12.915 83.04-10.663c20.02 2.024-2.64 11.727 18.807 16.095 20.888 4.285 39.206 4.668 83.142-.525 3.531-.442 7.18-.747 11-1.194 57.886-6.027 43.804-.679 127.755-13.127 83.645-12.35 110.77-17.536 155.983-8.149 8.572 1.785 14.613 4.038 18.105 6.852 14.207 11.535-.595 28.34-28.527 47.728-4.466 3.112-9.407 6.466-14.943 9.924-45.26 28.243-79.552 44.781-70.125 55.759 8.972 10.335 36.356 4.538 71.007 2.877 29.288-1.415 51.605-5.484 73.823-2.155 1.542.202 2.778.504 4.168.755 28.298 4.605 62.373-2.394 128.346-10.952 13.99-1.811 26.73-3.039 37.86-4.189 48.77-4.917 71.66-12.764 77.72-.697 5.86 11.606 3.68 9.416-1.66 26.313-2.2 7.113 9.12 8.797-4.2 20.037-42.9 36.337-56.5 42.931-67.81 61.76"/><path stroke="#fff" stroke-miterlimit="10" stroke-width=".635" d="M399.572 61.177s59.899-12.904 82.633-10.794c20.056 1.837-1.857 11.386 19.625 15.567 21.058 4.143 39.394 4.432 82.853-.52 3.532-.441 7.181-.746 10.983-1.1 57.545-5.74 43.105-.013 125.984-12.115 82.574-12.002 109.987-17.195 154.641-7.89 8.436 1.74 14.477 3.994 17.97 6.809 14.071 11.49-.407 28.102-27.88 47.343-4.466 3.111-9.254 6.415-14.638 9.824-44.477 27.903-78.462 44.342-68.883 55.269 9.126 10.286 36.339 4.632 70.99 2.971 29-1.409 51.452-5.434 73.84-2.248 1.542.202 2.779.503 4.321.705 28.469 4.462 62.986-2.592 128.369-11.045 13.99-1.811 26.86-2.996 37.69-4.047 48.42-4.63 70.98-12.285 76.45-.113 5.54 11.798 2.92 9.663-1.68 26.499-1.94 7.201 10.15 8.637-2.9 19.965-42.13 35.996-55.74 42.684-67.45 61.381"/><path stroke="#fff" stroke-miterlimit="10" stroke-width=".635" d="M419.739 61.663s59.323-12.892 82.227-10.926c19.938 1.7-1.074 11.045 20.29 15.089 21.076 4.049 39.582 4.195 82.718-.563 3.514-.349 7.18-.747 10.83-1.051 57.338-5.411 42.404.651 124.06-11.054 81.349-11.606 109.051-16.804 153.452-7.68 8.436 1.74 14.342 3.95 17.835 6.764 13.935 11.447-.237 27.96-27.234 46.959-4.312 3.062-9.101 6.365-14.484 9.774-43.848 27.611-77.374 43.901-67.659 54.873 9.279 10.236 36.321 4.725 70.836 3.021 29-1.41 51.3-5.385 73.858-2.342 1.543.202 2.779.503 4.321.705 28.928 4.313 63.461-2.834 128.391-11.139 13.99-1.811 26.7-2.946 37.8-3.909 48.09-4.345 70.32-11.807 75.48.464 5.08 11.947 2.16 9.911-1.85 26.642-1.66 7.289 11.48 8.472-1.88 19.899-41.34 35.654-54.99 42.529-66.8 60.995"/><path stroke="#fff" stroke-miterlimit="10" stroke-width=".635" d="M438.546 62.501s58.592-12.831 81.821-11.057c20.108 1.556-.428 10.66 21.107 14.56 21.246 3.907 40.059 3.954 82.718-.562 3.514-.349 7.163-.653 10.83-1.051 57.286-5.131 41.569 1.272 122.289-10.042 80.143-11.304 108.116-16.414 152.11-7.422 8.301 1.697 14.207 3.906 17.564 6.677 13.8 11.403-.202 27.773-26.586 46.574-4.312 3.062-8.948 6.316-14.178 9.675-43.065 27.27-76.15 43.505-66.418 54.383 9.143 10.193 36.457 4.769 70.819 3.114 28.712-1.404 51.164-5.428 73.876-2.435 1.542.203 2.931.454 4.321.706 29.387 4.164 64.231-3.082 128.401-11.233 13.99-1.811 26.69-2.852 37.79-3.815 47.9-4.109 69.66-11.329 74.36 1.09 4.62 12.095 1.39 10.159-1.87 26.736-1.55 7.426 12.65 8.355-.58 19.826-40.55 35.314-54.22 42.282-66.15 60.611"/><path stroke="#fff" stroke-miterlimit="10" stroke-width=".635" d="M456.416 63.73s58.016-12.82 81.415-11.189c19.991 1.42.355 10.32 21.772 14.083s40.247 3.717 82.583-.607c3.514-.349 7.163-.653 10.812-.958 57.08-4.801 40.869 1.938 120.383-9.074 78.919-10.907 107.333-16.073 150.768-7.162 8.301 1.697 14.207 3.906 17.429 6.633 13.665 11.359.122 27.58-25.94 46.188-4.159 3.013-8.794 6.267-14.025 9.627-42.282 26.928-75.214 43.114-65.193 53.986 9.296 10.143 36.439 4.863 70.954 3.158 28.712-1.404 51.011-5.379 73.893-2.528 1.543.202 2.932.454 4.474.656 29.849 4.016 64.709-3.324 128.269-11.277 14.13-1.767 26.82-2.808 37.77-3.722 47.56-3.823 68.7-10.845 73.1 1.673 4.31 12.195.63 10.407-1.91 26.923-1.14 7.558 13.69 8.195.58 19.803-39.93 35.023-53.32 42.078-65.51 60.226"/><path stroke="#fff" stroke-miterlimit="10" stroke-width=".635" d="M472.931 65.311s57.439-12.808 81.144-11.276c20.026 1.233 1.138 9.978 22.59 13.555 21.588 3.62 40.571 3.525 82.447-.651 3.514-.348 7.01-.603 10.66-.908 57.027-4.521 40.169 2.603 118.458-8.013 77.848-10.56 106.398-15.682 149.427-6.903 8.166 1.653 14.071 3.862 17.293 6.59 13.529 11.314.157 27.393-25.292 45.803-4.159 3.012-8.642 6.217-13.719 9.527-41.635 26.544-74.126 42.674-63.952 53.497 9.449 10.093 36.286 4.912 70.937 3.251 28.423-1.398 51.011-5.379 73.91-2.622 1.543.203 2.932.454 4.476.656 30.3 3.867 65.31-3.522 128.42-11.326 13.97-1.717 26.8-2.715 37.73-3.535 47.22-3.537 68.05-10.367 72.13 2.251 3.86 12.343 0 10.698-1.92 27.016-.87 7.645 15.01 8.029 1.88 19.731-39.14 34.681-52.71 41.879-65.01 59.89"/><path stroke="#fff" stroke-miterlimit="10" stroke-width=".635" d="M487.932 67.295s56.709-12.748 80.737-11.408c19.908 1.095 1.785 9.593 23.255 13.076 21.605 3.527 40.758 3.289 82.159-.645 3.513-.348 7.01-.603 10.641-.814 56.822-4.192 39.469 3.267 116.688-7.002 76.777-10.213 105.615-15.34 148.085-6.644 8.165 1.653 13.936 3.819 17.157 6.546 13.395 11.27.328 27.25-24.644 45.418-4.006 2.963-8.489 6.168-13.566 9.478-40.853 26.203-73.038 42.234-62.728 53.101 9.602 10.043 36.268 5.005 70.919 3.344 28.423-1.398 50.858-5.329 73.925-2.715 1.41.159 2.8.41 4.34.612 30.77 3.719 65.93-3.72 128.44-11.419 13.97-1.718 26.8-2.715 37.72-3.442 46.87-3.251 67.37-9.889 71 2.877 3.4 12.492-.76 10.946-1.96 27.203-.59 7.733 16.18 7.914 2.91 19.665-38.37 34.34-51.82 41.675-64.37 59.505"/><path stroke="#fff" stroke-miterlimit="10" stroke-width=".635" d="M501.551 69.723s56.267-12.692 80.331-11.54c19.925 1.003 2.568 9.253 24.073 12.55 21.64 3.34 41.099 3.002 82.023-.69 3.514-.348 6.992-.51 10.641-.814 56.616-3.862 38.77 3.932 114.917-5.99 75.553-9.817 104.68-14.95 146.879-6.34 8.165 1.652 13.8 3.773 16.887 6.457 13.123 11.183.515 27.014-24.133 44.99-4.007 2.963-8.336 6.118-13.549 9.384-40.223 25.911-71.949 41.794-61.486 52.611 9.755 9.994 36.251 5.099 70.766 3.394 28.135-1.392 50.705-5.28 73.95-2.808 1.4.158 2.79.41 4.49.562 31.08 3.527 66.4-3.962 128.45-11.512 13.98-1.718 26.79-2.622 37.7-3.349 46.54-2.965 66.71-9.41 69.75 3.461 3.09 12.59-1.38 11.144-2.13 27.345-.33 7.821 17.21 7.754 4.21 19.592-37.58 33.999-51.2 41.478-63.72 59.121"/><path stroke="#fff" stroke-miterlimit="10" stroke-width=".635" d="M513.218 72.61s55.691-12.682 79.925-11.672c19.961.815 3.351 8.911 24.891 12.02 21.81 3.198 41.423 2.811 81.887-.732 3.361-.299 6.993-.51 10.624-.721 56.564-3.582 37.934 4.554 112.993-4.928 74.482-9.47 103.897-14.61 145.537-6.082 8.03 1.609 13.665 3.73 16.751 6.414 12.988 11.139.687 26.87-23.486 44.605-3.853 2.913-8.182 6.068-13.242 9.285-39.441 25.57-70.86 41.354-60.262 52.215 9.755 9.994 36.233 5.192 70.901 3.438 27.847-1.387 50.703-5.28 73.963-2.902 1.41.158 2.95.36 4.49.562 31.55 3.378 67.17-4.209 128.48-11.606 14.1-1.674 26.76-2.528 37.81-3.211 46.35-2.729 65.91-8.976 68.63 4.087 2.63 12.74-2.01 11.436-2.15 27.439.08 7.952 18.54 7.588 5.36 19.57-36.95 33.707-50.3 41.273-63.07 58.735"/><path stroke="#fff" stroke-miterlimit="10" stroke-width=".635" d="M522.611 76.145s54.961-12.62 79.519-11.803c19.843.678 4.151 8.477 25.555 11.543 21.829 3.104 41.612 2.574 81.888-.733 3.361-.299 6.993-.51 10.471-.671 56.358-3.253 37.234 5.218 111.087-3.96 73.258-9.075 102.961-14.22 144.348-5.873 8.03 1.609 13.529 3.686 16.768 6.32 12.853 11.096.722 26.685-22.838 44.22-3.853 2.914-8.03 6.02-13.09 9.236-38.658 25.229-69.789 41.007-59.021 51.725 9.909 9.945 36.369 5.236 70.884 3.532 27.847-1.387 50.418-5.275 73.978-2.996 1.41.159 2.95.361 4.5.563 32 3.229 67.78-4.408 128.62-11.656 14.11-1.674 26.77-2.528 37.65-3.068 46-2.444 65.25-8.498 67.52 4.621 2.17 12.888-2.78 11.683-2.19 27.625.2 8.09 19.58 7.428 6.54 19.454-36.31 33.322-49.54 41.026-62.58 58.4"/><path stroke="#fff" stroke-miterlimit="10" stroke-width=".635" d="M529.59 80.287s54.384-12.61 79.248-11.89c19.86.584 4.933 8.135 26.373 11.014 21.999 2.962 41.935 2.382 81.752-.776 3.496-.255 6.975-.417 10.454-.579 56.304-2.972 36.534 5.884 109.315-2.948 72.187-8.728 102.179-13.878 143.006-5.614 7.895 1.566 13.394 3.643 16.634 6.277 12.718 11.052 1.045 26.492-22.192 43.835-3.835 2.82-7.877 5.97-12.783 9.137-38.011 24.844-68.701 40.567-57.797 51.329 9.926 9.851 36.351 5.329 70.866 3.625 27.554-1.382 50.264-5.225 73.994-3.089 1.56.109 2.95.36 4.65.513 32.46 3.08 68.26-4.65 128.64-11.749 14.11-1.674 26.75-2.435 37.63-2.975 45.53-2.201 64.58-8.02 66.4 5.247 1.71 13.037-3.41 11.975-2.36 27.769.47 8.177 20.75 7.312 7.69 19.431-35.52 32.981-48.79 40.871-61.93 58.015"/><path stroke="#fff" stroke-miterlimit="10" stroke-width=".635" d="M535.629 85.61s53.655-12.548 78.842-12.022c19.742.448 5.716 7.795 27.038 10.537 22.169 2.818 42.258 2.189 81.464-.771 3.496-.255 6.974-.417 10.453-.578 56.099-2.643 35.834 6.548 107.392-1.888 71.116-8.38 101.243-13.487 141.664-5.354q11.841 2.348 16.498 6.233c12.58 11.008 1.08 26.305-21.544 43.45-3.836 2.82-7.724 5.92-12.631 9.087-37.228 24.503-67.612 40.127-56.555 50.84 10.079 9.801 36.334 5.422 70.713 3.674 27.557-1.381 50.267-5.225 74.017-3.182 1.56.108 2.95.36 4.51.469 32.92 2.932 68.87-4.848 128.66-11.842 14.11-1.674 26.89-2.392 37.75-2.839 45.18-1.915 63.91-7.541 65.27 5.875 1.4 13.136-3.88 12.217-2.24 27.906.74 8.265 22.07 7.146 9 19.358-34.89 32.69-48.03 40.624-61.29 57.631"/><path stroke="#fff" stroke-miterlimit="10" stroke-width=".635" d="M540.574 91.372s53.078-12.536 78.436-12.153c19.777.26 6.362 7.41 27.855 10.009 22.34 2.675 42.6 1.903 81.329-.815 3.496-.255 6.821-.367 10.3-.529 55.893-2.312 34.981 7.263 105.621-.875 69.756-8.029 100.307-13.097 140.322-5.096 7.759 1.522 13.258 3.6 16.223 6.145 12.45 10.964 1.26 26.163-20.893 43.066-3.683 2.77-7.706 5.827-12.324 8.988-36.599 24.212-66.524 39.687-55.332 50.443 10.232 9.752 36.316 5.516 70.849 3.718 27.27-1.375 50.11-5.175 74.03-3.275 1.56.108 3.11.311 4.51.469 33.39 2.783 69.49-5.046 128.68-11.936 14.25-1.63 26.87-2.298 37.73-2.745 45-1.679 63.12-7.106 64.17 6.409.94 13.284-4.65 12.464-2.41 28.048 1.15 8.397 23.11 6.986 10.15 19.336-34.11 32.349-47.12 40.42-60.64 57.246"/><path stroke="#fff" stroke-miterlimit="10" stroke-width=".635" d="M544.219 97.208s52.483-12.432 77.876-12.236c19.795.168 7.146 7.069 28.673 9.481 22.511 2.533 42.924 1.711 81.193-.858 3.344-.206 6.958-.323 10.283-.436 55.841-2.032 34.146 7.885 103.85.137 68.686-7.682 99.661-12.712 139.116-4.793q11.639 2.282 16.09 6.101c12.31 10.921 1.44 25.927-20.248 42.681-3.683 2.771-7.553 5.777-12.172 8.938-35.816 23.871-65.435 39.247-54.089 49.954 10.232 9.752 36.298 5.609 70.831 3.811 27.268-1.375 49.958-5.125 74.048-3.368 1.56.108 3.11.311 4.67.419 33.7 2.591 70.24-5.293 128.83-11.985 14.24-1.63 26.71-2.248 37.69-2.558 44.66-1.393 62.45-6.628 63.04 7.035.49 13.433-5.12 12.706-2.44 28.236 1.42 8.484 24.28 6.87 11.32 19.219-33.61 32.014-46.51 40.222-60.28 56.867"/><path stroke="#fff" stroke-miterlimit="10" stroke-width=".635" d="M547.13 103.104s51.753-12.37 77.47-12.367c19.677.03 7.928 6.728 29.338 9.003 22.528 2.439 43.111 1.475 81.057-.902 3.344-.206 6.805-.274 10.283-.436 55.635-1.703 33.446 8.55 101.791 1.154 67.461-7.285 98.725-12.321 137.774-4.534 7.624 1.478 12.987 3.512 15.957 6.058 12.17 10.876 1.61 25.783-19.604 42.296-3.529 2.721-7.4 5.727-12.018 8.889-35.169 23.485-64.346 38.806-52.866 49.557 10.385 9.702 36.434 5.653 70.814 3.905 26.984-1.37 49.954-5.126 74.064-3.462 1.56.108 3.11.31 4.67.419 34.16 2.442 70.72-5.536 128.85-12.078 14.09-1.581 26.85-2.205 37.67-2.465 44.32-1.107 61.79-6.15 61.92 7.662.18 13.532-5.75 12.998-2.46 28.329 1.82 8.615 25.47 6.66 12.47 19.196-32.83 31.673-45.61 40.019-59.62 56.482"/><path stroke="#fff" stroke-miterlimit="10" stroke-width=".635" d="M548.754 108.98s51.177-12.36 77.199-12.455c19.56-.107 8.576 6.343 30.156 8.475 22.699 2.296 43.435 1.282 80.923-.946 3.343-.205 6.804-.274 10.265-.342 55.582-1.423 32.746 9.215 100.019 2.165 66.391-6.938 97.943-11.98 136.586-4.324 7.623 1.478 12.852 3.468 15.82 6.014 12.038 10.833 1.648 25.597-18.955 41.911-3.53 2.721-7.247 5.678-11.713 8.79-34.386 23.145-63.275 38.46-51.624 49.067 10.538 9.653 36.417 5.747 70.796 3.999 26.844-1.414 49.804-5.077 73.934-3.506 1.56.108 2.97.267 4.66.419 34.63 2.294 71.34-5.734 128.87-12.172 14.09-1.58 26.83-2.111 37.66-2.371 43.99-.915 61.12-5.672 60.66 8.245-.28 13.68-6.37 13.196-2.64 28.472 2.1 8.703 26.64 6.544 13.63 19.173-32.18 31.288-44.99 39.821-58.98 56.097"/><path stroke="#fff" stroke-miterlimit="10" stroke-width=".635" d="M549.783 114.959s50.447-12.298 76.793-12.586c19.577-.2 9.358 6.002 30.82 7.997 22.87 2.153 43.759 1.09 80.77-.897 3.343-.205 6.651-.224 10.112-.292 55.512-1.049 32.046 9.879 98.249 3.177 65.166-6.542 97.006-11.59 135.243-4.065 7.471 1.527 12.717 3.424 15.55 5.926 11.9 10.789 1.969 25.404-18.444 41.482-3.376 2.672-7.094 5.629-11.695 8.697-33.603 22.803-62.186 38.019-50.4 48.671 10.691 9.603 36.399 5.84 70.797 3.998 26.692-1.364 49.672-5.12 73.952-3.599 1.56.109 2.97.267 4.68.326 35.23 2.095 71.95-5.932 128.73-12.216a391 391 0 0 1 37.78-2.234c43.65-.629 60.32-5.237 59.68 8.822-.73 13.83-6.99 13.488-2.66 28.659 2.36 8.791 27.67 6.384 14.8 19.058-31.56 30.996-44.1 39.616-58.34 55.712"/><path stroke="#fff" stroke-miterlimit="10" stroke-width=".635" d="M550.118 120.814s49.717-12.238 76.386-12.718c19.46-.337 10.141 5.661 31.639 7.469 22.904 1.967 44.235.848 80.634-.94 3.478-.162 6.786-.181 10.094-.199 55.306-.72 31.211 10.5 96.325 4.238 64.095-6.196 96.224-11.249 133.901-3.806 7.336 1.483 12.582 3.38 15.415 5.882 11.768 10.745 2.004 25.218-17.797 41.098-3.376 2.671-6.941 5.579-11.388 8.597-32.975 22.512-61.099 37.58-49.159 48.182 10.709 9.51 36.381 5.933 70.779 4.091 26.553-1.408 49.513-5.07 73.973-3.693l4.68.327c35.56 1.903 72.56-6.13 128.88-12.266 14.23-1.536 26.82-2.017 37.61-2.091 43.31-.343 59.65-4.759 58.56 9.449-1.2 13.978-7.47 13.73-2.69 28.752 2.93 8.873 29 6.219 15.96 19.035-30.77 30.655-43.33 39.369-57.84 55.377"/><path stroke="#fff" stroke-miterlimit="10" stroke-width=".635" d="M549.875 126.679s49.275-12.182 75.98-12.849c19.341-.475 10.941 5.226 32.303 6.991 23.075 1.824 44.423.611 80.498-.984 3.479-.162 6.787-.181 10.095-.2 55.253-.439 30.511 11.166 94.554 5.251 62.889-5.893 95.288-10.858 132.559-3.547 7.336 1.483 12.582 3.379 15.28 5.838 11.476 10.751 2.174 25.074-17.15 40.712-3.223 2.622-6.788 5.53-11.236 8.548-32.327 22.128-60.009 37.14-47.934 47.786 10.708 9.51 36.228 5.982 70.761 4.185 26.405-1.359 49.365-5.022 73.985-3.787l4.68.327c36.02 1.754 73.17-6.329 128.9-12.359 14.23-1.537 26.8-1.924 37.59-1.998 42.99-.151 59-4.281 57.31 10.032-1.51 14.077-7.95 13.972-2.72 28.939 3.19 8.961 30.03 6.059 17.26 18.963-30.28 30.319-42.59 39.214-57.2 54.991"/><path stroke="#fff" stroke-miterlimit="10" stroke-width=".635" d="M549.497 132.501s48.545-12.122 75.71-12.937c19.512-.618 11.723 4.885 33.12 6.463 23.246 1.681 44.747.419 80.363-1.028 3.326-.112 6.634-.131 9.942-.15 55.047-.11 29.811 11.831 92.647 6.218 61.665-5.496 94.506-10.517 131.354-3.244 7.2 1.44 12.446 3.336 15.143 5.795 11.346 10.707 2.363 24.838-16.502 40.327-3.223 2.622-6.635 5.48-10.93 8.449-31.544 21.786-58.921 36.699-46.693 47.296 10.862 9.46 36.211 6.076 70.744 4.278 26.265-1.402 49.365-5.021 74.005-3.879 1.56.108 3.12.217 4.83.276 36.48 1.606 73.65-6.57 128.92-12.452 14.23-1.536 26.8-1.924 37.71-1.86 42.64.135 58.19-3.847 56.33 10.609-1.96 14.226-8.71 14.219-2.89 29.082 3.6 9.092 31.21 5.942 18.42 18.94-29.5 29.978-41.82 38.966-56.55 54.606"/><path stroke="#fff" stroke-miterlimit="10" stroke-width=".635" d="M548.56 138.24s47.816-12.06 75.303-13.068c19.395-.755 12.506 4.544 33.939 5.935 23.416 1.538 45.07.227 80.075-1.022 3.325-.113 6.769-.088 9.924-.057 54.841.22 29.111 12.496 90.723 7.28 60.594-5.15 93.57-10.127 130.011-2.985 7.2 1.439 12.311 3.292 15.009 5.75 11.21 10.663 2.533 24.696-15.855 39.943-3.071 2.572-6.483 5.431-10.777 8.399-30.762 21.445-57.986 36.309-45.469 46.9 11.015 9.411 36.346 6.12 70.879 4.322 26.118-1.353 49.208-4.972 74.018-3.973 1.72.059 3.12.218 4.84.277 36.95 1.363 74.26-6.769 128.93-12.546 14.37-1.493 26.79-1.831 37.54-1.717 42.3.42 57.53-3.369 55.21 11.236-2.42 14.374-9.19 14.461-2.77 29.219 3.87 9.179 32.24 5.782 19.58 18.823-29 29.644-41.05 38.719-55.9 54.222"/><path stroke="#fff" stroke-miterlimit="10" stroke-width=".635" d="M547.637 143.886s47.375-12.005 74.897-13.199c19.412-.849 13.153 4.159 34.604 5.456 23.434 1.445 45.394.035 79.939-1.066 3.325-.112 6.616-.037 9.771-.007 54.771.594 28.123 13.167 88.952 8.291 59.37-4.753 92.788-9.785 128.67-2.725 7.065 1.395 12.175 3.248 14.738 5.663 11.074 10.619 2.568 24.508-15.208 39.557-3.071 2.573-6.33 5.381-10.624 8.35-30.115 21.06-56.762 35.913-44.381 46.459 11.168 9.362 36.329 6.214 70.726 4.372 25.979-1.397 49.059-4.922 74.039-4.066 1.71.059 3.12.217 4.7.233 37.41 1.215 75.02-7.016 129.09-12.595 14.36-1.493 26.92-1.788 37.52-1.625 41.98.614 56.86-2.89 53.95 11.82-2.88 14.522-9.67 14.703-2.95 29.362 4.28 9.311 33.57 5.616 20.74 18.8-28.35 29.259-40.3 38.565-55.4 53.887"/><path stroke="#fff" stroke-miterlimit="10" stroke-width=".635" d="M546.738 149.439s46.644-11.944 74.49-13.331c19.294-.986 13.936 3.818 35.421 4.929 23.605 1.302 45.718-.158 79.94-1.066 3.325-.112 6.616-.038 9.906.037 54.719.873 27.423 13.831 87.182 9.303 58.299-4.407 91.852-9.395 127.48-2.517 7.065 1.396 12.193 3.155 14.603 5.619 10.939 10.576 2.891 24.317-14.561 39.173-2.918 2.523-6.177 5.332-10.318 8.251-29.485 20.769-55.673 35.472-43.003 46.014 11.32 9.311 36.311 6.306 70.708 4.465 25.694-1.391 48.924-4.966 74.054-4.16 1.72.059 3.28.168 4.85.183 37.88 1.067 75.64-7.214 129.11-12.688 14.36-1.493 26.76-1.738 37.64-1.487 41.64.899 56.2-2.412 52.82 12.446-3.18 14.622-10.14 14.945-2.96 29.455 4.55 9.399 34.61 5.457 22.05 18.729-27.73 28.967-39.54 38.317-54.76 53.501"/><path stroke="#fff" stroke-miterlimit="10" stroke-width=".635" d="M546.025 154.756s46.05-11.839 74.084-13.463c19.312-1.078 14.872 3.428 36.086 4.451 23.775 1.159 45.906-.394 79.804-1.11 3.461-.068 6.599.056 9.754.087 54.512 1.203 26.722 14.496 85.257 10.364 57.075-4.011 90.917-9.004 126.139-2.257 6.929 1.351 12.057 3.111 14.467 5.575 10.803 10.531 2.927 24.129-13.914 38.788-2.764 2.473-6.023 5.282-10.165 8.201-28.702 20.428-54.584 35.032-41.914 45.573 11.185 9.268 36.293 6.401 70.69 4.559 25.697-1.391 48.767-4.917 74.077-4.253 1.58.015 3.27.168 4.85.183 38.35.825 76.25-7.412 129.12-12.782 14.21-1.443 26.75-1.644 37.62-1.393 41.45 1.135 55.4-1.978 51.86 13.023-3.65 14.77-10.62 15.187-3 29.642 5.11 9.481 35.78 5.341 23.07 18.662-27.08 28.582-38.8 38.163-54.11 53.117"/><path stroke="#fff" stroke-miterlimit="10" stroke-width=".635" d="M545.619 159.974s45.32-11.778 73.813-13.55c19.194-1.216 15.519 3.042 36.904 3.923 23.946 1.015 46.23-.587 79.668-1.154 3.461-.069 6.599.056 9.736.18 54.443 1.576 26.023 15.161 83.352 11.332 55.868-3.708 90.134-8.663 124.797-1.998 6.929 1.351 11.922 3.067 14.331 5.531 10.668 10.488 3.097 23.986-13.266 38.403-2.765 2.473-5.871 5.232-9.859 8.102-28.056 20.043-53.649 34.642-40.538 45.128 11.338 9.218 36.276 6.493 70.826 4.602 25.407-1.385 48.617-4.867 74.087-4.346 1.58.015 3.14.124 4.86.183 38.8.676 76.86-7.61 129.14-12.875 14.34-1.4 26.88-1.601 37.58-1.207 40.98 1.377 54.74-1.499 50.6 13.607-4.1 14.918-11.25 15.478-3.17 29.784 5.38 9.569 36.81 5.181 24.37 18.59-26.44 28.291-38.03 37.915-53.46 52.732"/><path stroke="#fff" stroke-miterlimit="10" stroke-width=".635" d="M545.531 164.999s44.878-11.723 73.407-13.682c19.211-1.309 16.301 2.702 37.721 3.395 23.981.829 46.553-.779 79.38-1.148 3.308-.019 6.446.105 9.736.18 54.237 1.906 25.188 15.782 81.427 12.393 54.645-3.311 89.199-8.272 123.456-1.739 6.793 1.308 11.922 3.067 14.196 5.488 10.532 10.443 3.421 23.794-12.755 37.974-2.612 2.424-5.853 5.139-9.841 8.009-27.273 19.702-52.56 34.201-39.449 44.687 11.491 9.169 36.411 6.538 70.808 4.696 25.404-1.385 48.613-4.867 74.113-4.44 1.57.015 3.13.124 5 .134 39.13.483 77.47-7.809 129.16-12.969 14.34-1.399 26.73-1.551 37.57-1.113 40.78 1.613 54.07-1.021 49.47 14.233-4.41 15.018-11.73 15.721-3.05 29.922 5.79 9.7 38.13 5.015 25.53 18.567-25.96 27.955-37.13 37.711-53.11 52.353"/><path stroke="#fff" stroke-miterlimit="10" stroke-width=".635" d="M546.059 169.826s44.149-11.663 73.001-13.814c19.094-1.447 17.101 2.267 38.386 2.917 24.152.686 46.877-.972 79.245-1.192 3.308-.019 6.581.149 9.718.273 54.031 2.236 24.488 16.448 79.657 13.405 53.573-2.964 88.415-7.931 122.248-1.436 6.794 1.308 11.787 3.023 13.925 5.4 10.398 10.4 3.457 23.607-12.107 37.589-2.612 2.424-5.7 5.09-9.535 7.91-26.643 19.41-51.472 33.762-38.072 44.242 11.644 9.119 36.393 6.631 70.655 4.745 25.115-1.38 48.46-4.817 74.13-4.533 1.57.015 3.29.075 4.86.09 39.75.285 78.09-8.007 129.32-13.018 14.34-1.4 26.86-1.507 37.55-1.02 40.31 1.855 53.4-.543 48.5 14.81-4.87 15.167-12.34 15.919-3.22 30.065 6.21 9.739 39.17 4.855 26.7 18.451-25.31 27.57-36.52 37.513-52.46 51.968"/><path stroke="#fff" stroke-miterlimit="10" stroke-width=".635" d="M547.201 174.455s43.555-11.558 72.442-13.896c19.111-1.54 17.884 1.927 39.204 2.39 24.322.543 47.2-1.165 79.109-1.236 3.308-.019 6.581.149 9.565.323 53.961 2.609 23.788 17.112 77.886 14.416 52.502-2.617 87.615-7.497 120.907-1.177 6.793 1.308 11.651 2.98 13.789 5.356 10.262 10.356 3.627 23.465-11.46 37.205-2.594 2.33-5.547 5.04-9.382 7.86-25.996 19.025-50.248 33.365-36.984 43.801 11.645 9.12 36.376 6.725 70.638 4.839 25.115-1.379 48.315-4.768 74.145-4.626 1.58.015 3.29.074 4.87.09 40.2.136 78.56-8.249 129.18-13.062 14.34-1.4 26.84-1.414 37.66-.883 40.12 2.092 52.61-.108 47.24 15.393-5.32 15.316-12.81 16.161-3.25 30.252 6.62 9.87 40.34 4.739 27.85 18.428-24.68 27.279-35.62 37.309-51.81 51.583"/><path stroke="#fff" stroke-miterlimit="10" stroke-width=".635" d="M549.258 178.786s42.825-11.496 72.036-14.027c19.129-1.633 18.666 1.585 39.869 1.911 24.492.401 47.524-1.356 79.109-1.236 3.308-.018 6.428.199 9.412.373 53.755 2.939 22.8 17.783 75.962 15.478 51.143-2.266 86.833-7.156 119.565-.918 6.658 1.264 11.515 2.935 13.807 5.262 10.127 10.313 3.815 23.228-10.813 36.82-2.594 2.33-5.394 4.99-9.229 7.81-25.214 18.685-49.159 32.926-35.607 43.356 11.797 9.07 36.359 6.818 70.773 4.883 24.827-1.374 48.308-4.768 74.158-4.72 1.58.015 3.29.075 4.87.09 40.68-.105 79.18-8.447 129.2-13.155 14.48-1.356 26.85-1.414 37.49-.74 39.65 2.333 51.94.37 46.12 16.02-5.78 15.464-13.29 16.403-3.27 30.345 7.18 9.952 41.38 4.579 29.16 18.356-24.03 26.894-35.01 37.111-51.17 51.198"/><path stroke="#fff" stroke-miterlimit="10" stroke-width=".635" d="M552.369 182.865s42.23-11.392 71.765-14.115c19.01-1.77 19.313 1.201 40.686 1.383 24.663.258 47.847-1.549 78.974-1.279 3.443.025 6.563.242 9.547.416 53.702 3.219 22.1 18.448 74.055 16.446 50.073-1.919 85.898-6.766 118.377-.709 6.658 1.264 11.38 2.892 13.672 5.219 9.991 10.268 3.985 23.085-10.166 36.435-2.441 2.281-5.241 4.941-8.924 7.711-24.43 18.344-48.223 32.535-34.517 42.916 11.814 8.977 36.34 6.911 70.755 4.976 24.827-1.374 48.017-4.762 74.177-4.813 1.58.015 3.29.074 5.02.04 41.01-.298 79.79-8.645 129.22-13.249 14.48-1.355 26.83-1.32 37.48-.646 39.45 2.57 51.27.848 44.99 16.647-6.09 15.563-13.77 16.645-3.44 30.488 7.45 10.04 42.7 4.413 30.31 18.333-23.54 26.559-34.11 36.907-50.67 50.863"/><path stroke="#fff" stroke-miterlimit="10" stroke-width=".635" d="M556.533 186.69s41.5-11.331 71.359-14.246c19.028-1.864 20.249.81 41.351.905 24.833.114 48.171-1.742 78.685-1.274 3.29.074 6.41.292 9.395.465 53.631 3.593 21.399 19.114 72.284 17.458 48.848-1.522 85.115-6.424 117.034-.449 6.523 1.22 11.245 2.848 13.401 5.131 9.856 10.224 4.021 22.898-9.518 36.05-2.441 2.281-5.088 4.891-8.771 7.662-23.936 18.008-47.134 32.094-33.141 42.47 11.968 8.927 36.324 7.004 70.739 5.069 24.539-1.368 48.019-4.762 74.199-4.907 1.73-.034 3.29.075 5.02.041 41.61-.496 80.4-8.843 129.37-13.299 14.48-1.355 26.96-1.276 37.59-.509 38.98 2.812 50.32 1.332 43.89 17.181-6.55 15.711-14.24 16.886-3.48 30.675 8.01 10.121 43.74 4.253 31.48 18.216-23.04 26.224-33.34 36.66-50.02 50.478"/><path stroke="#fff" stroke-miterlimit="10" stroke-width=".635" d="M561.922 190.118s41.058-11.276 70.952-14.378c18.911-2.001 20.896.425 42.169.377 24.869-.072 48.494-1.934 78.55-1.317 3.29.074 6.41.292 9.377.559 53.426 3.922 20.564 19.734 70.36 18.519 47.642-1.22 84.179-6.034 115.693-.191 6.522 1.22 11.109 2.804 13.265 5.087 9.567 10.231 4.345 22.706-8.871 35.666-2.288 2.231-4.935 4.841-8.465 7.562-23.154 17.667-46.046 31.655-32.052 42.03 12.121 8.878 36.459 7.048 70.585 5.119 24.405-1.412 47.865-4.713 74.215-5 1.73-.034 3.44.025 4.89-.003 41.93-.689 81.01-9.042 129.38-13.392 14.46-1.262 26.81-1.227 37.58-.416 38.79 3.048 49.65 1.81 42.76 17.808-7.01 15.86-14.72 17.128-3.49 30.768 8.28 10.209 44.77 4.093 32.63 18.194-22.26 25.882-32.59 36.505-49.37 50.093"/><path stroke="#fff" stroke-miterlimit="10" stroke-width=".635" d="M568.651 193.288s40.465-11.171 70.547-14.509c18.928-2.094 21.678.084 42.986-.151 25.04-.215 48.954-2.082 78.415-1.361 3.29.074 6.257.341 9.377.559 53.355 4.296 19.864 20.399 68.589 19.531 46.418-.824 83.397-5.693 114.486.112 6.388 1.176 11.11 2.804 13.13 5.043 9.432 10.187 4.38 22.52-8.224 35.281-2.288 2.231-4.782 4.792-8.311 7.513-22.507 17.282-44.958 31.214-30.811 41.54 12.121 8.877 36.441 7.142 70.721 5.163 24.254-1.363 47.714-4.663 74.234-5.094 1.73-.034 3.31-.019 5.04-.053 42.39-.837 81.62-9.239 129.4-13.485 14.46-1.262 26.95-1.183 37.41-.273 38.46 3.241 48.99 2.289 41.64 18.435-7.47 16.008-15.05 17.321-3.53 30.955 8.83 10.291 45.94 3.977 33.94 18.121-21.77 25.547-31.83 36.258-48.73 49.708"/><path stroke="#fff" stroke-miterlimit="10" stroke-width=".635" d="M576.894 196.056s39.87-11.067 70.139-14.641c18.946-2.188 22.479-.351 43.652-.629 25.21-.358 49.277-2.275 78.279-1.406 3.29.075 6.392.386 9.359.653 52.997 4.675 19.029 21.021 66.819 20.542 45.346-.476 82.461-5.302 113.144.372 6.388 1.176 10.974 2.76 12.995 4.999 9.296 10.143 4.703 22.327-7.577 34.896-2.135 2.182-4.629 4.743-8.006 7.414-21.724 16.941-44.022 30.824-29.586 41.144 12.273 8.828 36.288 7.191 70.703 5.256 24.115-1.406 47.715-4.663 74.245-5.187 1.74-.034 3.31-.019 5.04-.053 42.88-1.079 82.24-9.437 129.42-13.578 14.46-1.262 26.8-1.134 37.53-.136 38.13 3.527 48.33 2.767 40.53 18.968-7.77 16.108-15.65 17.519-3.7 31.098 9.25 10.422 46.98 3.817 34.96 18.055-21.27 25.211-30.92 36.054-48.23 49.373"/><path stroke="#fff" stroke-miterlimit="10" stroke-width=".635" d="M586.768 198.559s39.14-11.006 69.869-14.729c18.828-2.325 23.261-.691 44.469-1.157 25.381-.501 49.448-2.418 78.126-1.356 3.426.119 6.24.435 9.206.702 52.792 5.005 18.33 21.686 64.76 21.56 43.987-.124 81.678-4.961 111.802.631 6.252 1.132 10.839 2.716 12.859 4.956 9.026 10.054 4.874 22.183-6.93 34.51-2.135 2.182-4.475 4.693-7.987 7.321-21.231 16.606-42.798 30.427-28.346 40.654 12.427 8.779 36.271 7.285 70.684 5.349 23.96-1.356 47.56-4.613 74.27-5.28 1.73-.034 3.31-.018 5.04-.053 43.2-1.271 82.84-9.635 129.57-13.627 14.46-1.263 26.93-1.09 37.51-.043 37.8 3.719 47.53 3.201 39.41 19.595-8.23 16.256-16.13 17.761-3.58 31.235 9.66 10.461 48.17 3.607 36.26 17.983-20.62 24.826-30.31 35.855-47.58 48.988"/><path stroke="#fff" stroke-miterlimit="10" stroke-width=".635" d="M598.459 200.561s38.546-10.901 69.462-14.861c18.846-2.418 23.909-1.076 45.134-1.635 25.416-.687 49.772-2.61 77.991-1.4 3.273.168 6.24.435 9.054.752 52.72 5.378 17.493 22.307 62.988 22.572 42.916.223 80.743-4.571 110.613.84 6.252 1.132 10.704 2.672 12.589 4.868 8.89 10.011 4.909 21.997-6.419 34.082A74.6 74.6 0 0 1 972.19 253c-20.448 16.265-41.709 29.988-27.121 40.258 12.444 8.685 36.253 7.378 70.531 5.399 23.83-1.4 47.41-4.564 74.29-5.373l5.19-.103c43.81-1.469 83.46-9.834 129.59-13.721 14.6-1.218 26.91-.996 37.49.051 37.61 3.955 46.86 3.68 38.15 20.178-8.69 16.405-16.61 18.003-3.75 31.378 10.22 10.542 49.34 3.491 37.42 17.96-20.13 24.491-29.42 35.652-46.94 48.603"/><path stroke="#fff" stroke-miterlimit="10" stroke-width=".635" d="M611.953 202.155s38.104-10.846 69.056-14.992c18.863-2.512 24.845-1.467 45.952-2.162 25.586-.831 50.095-2.803 77.855-1.444 3.273.168 6.222.528 9.189.795 52.515 5.708 16.641 23.022 61.217 23.584 41.845.569 79.961-4.23 109.272 1.099 6.117 1.088 10.568 2.629 12.453 4.824 8.753 9.967 5.233 21.805-5.771 33.697-1.982 2.132-4.305 4.55-7.529 7.172-19.8 15.88-40.62 29.547-25.879 39.768 12.444 8.685 36.235 7.472 70.672 5.443 23.67-1.351 47.27-4.608 74.3-5.467 1.73-.034 3.46-.068 5.05-.146 44.14-1.662 84.07-10.032 129.61-13.815 14.6-1.218 26.91-.996 37.46.238 37.42 4.191 46.19 4.158 37.03 20.805-9 16.504-17.09 18.245-3.78 31.471 10.5 10.63 50.38 3.331 38.73 17.888-19.63 24.156-28.8 35.453-46.29 48.218"/><path stroke="#fff" stroke-miterlimit="10" stroke-width=".635" d="M629.365 203.532s37.51-10.74 68.651-15.123c18.88-2.605 25.491-1.852 46.769-2.69 25.757-.974 50.419-2.996 77.72-1.488 3.273.168 6.222.528 9.036.845 52.445 6.081 15.805 23.643 59.293 24.645 40.486.922 79.025-3.839 107.93 1.358 6.116 1.089 10.436 2.585 12.316 4.78 8.62 9.924 5.27 21.618-5.12 33.312a59.6 59.6 0 0 1-7.378 7.123c-19.171 15.588-39.532 29.107-24.655 39.372 12.597 8.635 36.373 7.515 70.653 5.536 23.38-1.345 47.12-4.558 74.32-5.56 1.73-.034 3.46-.068 5.05-.146 44.61-1.904 84.69-10.231 129.63-13.908 14.6-1.219 26.89-.903 37.44.33 36.95 4.434 45.39 4.593 36.05 21.383-9.45 16.652-17.4 18.437-3.8 31.658 11.05 10.712 51.41 3.171 39.74 17.821-18.99 23.771-27.9 35.25-45.93 47.839"/><path stroke="#fff" stroke-miterlimit="10" stroke-width=".635" d="M648.775 204.963s36.916-10.636 68.244-15.255c18.763-2.743 26.275-2.193 47.435-3.169 25.792-1.16 50.589-3.138 77.584-1.531 3.273.168 6.069.578 9.018.938 52.239 6.411 15.106 24.308 57.387 25.613 39.415 1.268 78.242-3.498 106.587 1.617 6.12 1.088 10.3 2.541 12.18 4.736 8.49 9.88 5.44 21.475-4.47 32.927-1.83 2.083-4 4.452-7.07 7.024-18.526 15.204-38.599 28.717-23.417 38.882 12.747 8.586 36.357 7.609 70.637 5.63 23.38-1.345 46.96-4.509 74.33-5.654 1.73-.034 3.46-.068 5.21-.196 44.94-2.096 85.3-10.428 129.63-13.908 14.58-1.125 27.03-.859 37.55.469 36.77 4.67 44.74 5.07 34.8 21.965-9.91 16.801-18.02 18.635-3.98 31.801 11.62 10.794 52.59 3.055 41.06 17.748-18.36 23.48-27.14 35.003-45.29 47.455"/><path stroke="#fff" stroke-miterlimit="10" stroke-width=".635" d="M669.075 206.283s36.321-10.531 67.973-15.342c18.781-2.836 27.074-2.628 48.252-3.697 25.963-1.303 50.913-3.331 77.296-1.526 3.12.218 6.205.622 8.865.988 52.016 6.834 14.271 24.929 55.616 26.624 38.209 1.572 77.303-3.107 105.383 1.921 5.98 1.044 10.3 2.541 11.91 4.648 8.35 9.836 5.76 21.283-3.83 32.543a52.6 52.6 0 0 1-6.92 6.974c-17.74 14.862-37.504 28.276-22.19 38.486 12.91 8.536 36.34 7.702 70.62 5.723 23.1-1.34 46.97-4.509 74.35-5.747 1.74-.034 3.48-.162 5.21-.196 45.55-2.295 85.91-10.626 129.65-14.002 14.58-1.125 26.87-.809 37.38.611 36.44 4.863 44.07 5.55 33.68 22.593-10.38 16.949-18.5 18.877-3.86 31.938 12.04 10.832 53.62 2.895 42.2 17.726-17.86 23.144-26.39 34.848-44.64 47.069"/><path stroke="#fff" stroke-miterlimit="10" stroke-width=".635" d="M689.947 207.593s35.592-10.471 67.567-15.474c18.951-2.979 27.857-2.969 48.917-4.175 26.133-1.446 51.372-3.479 77.161-1.57 3.255.262 6.204.622 9 1.032 51.81 7.164 13.571 25.594 53.692 27.686 36.985 1.967 76.376-2.717 104.036 2.179 5.99 1.045 10.17 2.497 11.78 4.605 8.21 9.792 5.8 21.096-3.18 32.157-1.68 2.033-3.7 4.352-6.61 6.875-17.25 14.527-36.29 27.88-20.95 37.997 12.9 8.536 36.32 7.795 70.46 5.772 22.96-1.384 46.82-4.459 74.37-5.84 1.75-.128 3.48-.162 5.21-.196 46.02-2.537 86.52-10.825 129.66-14.095 14.58-1.125 27.02-.766 37.37.704 36.25 5.099 43.4 6.028 32.55 23.219-10.68 17.049-18.82 19.07-4.03 32.081 12.45 10.964 54.66 2.736 43.23 17.66-17.37 22.809-25.63 34.6-44 46.684"/><path stroke="#fff" stroke-miterlimit="10" stroke-width=".635" d="M710.992 208.759s34.996-10.366 67.007-15.556c18.969-3.073 28.504-3.354 49.735-4.703 26.168-1.633 51.542-3.622 77.16-1.57 3.256.262 6.052.672 8.848 1.082 51.604 7.493 12.735 26.215 51.921 28.697 35.777 2.271 75.727-2.332 102.697 2.438 5.85 1.001 10.03 2.454 11.64 4.561 7.93 9.798 5.97 20.953-2.53 31.773a45.7 45.7 0 0 1-6.46 6.825c-16.47 14.186-35.35 27.49-19.73 37.6 12.93 8.444 36.3 7.889 70.6 5.817 22.81-1.334 46.66-4.41 74.39-5.934 1.75-.128 3.48-.162 5.23-.289 46.34-2.729 87.13-11.023 129.68-14.188 14.71-1.082 26.86-.717 37.48.841 35.93 5.291 42.61 6.462 31.45 23.753-11.14 17.197-19.3 19.312-4.2 32.224 13 11.046 55.84 2.525 44.53 17.587-16.73 22.424-24.88 34.446-43.5 46.349"/><path stroke="#fff" stroke-miterlimit="10" stroke-width=".635" d="M732.322 209.919s34.555-10.311 66.601-15.688c18.851-3.209 29.44-3.744 50.4-5.181 26.492-1.825 51.865-3.814 77.025-1.613 3.255.261 6.187.715 8.695 1.131 51.38 7.916 12.034 26.88 50.15 29.709 34.707 2.617 74.787-1.942 101.507 2.647 5.85 1.001 9.89 2.41 11.51 4.518 7.79 9.753 6.29 20.76-1.89 31.387-1.52 1.984-3.39 4.253-6.15 6.727-15.82 13.801-34.26 27.049-18.64 37.16 13.08 8.393 36.28 7.982 70.58 5.909 22.67-1.377 46.66-4.409 74.41-6.027 1.75-.127 3.48-.161 5.23-.289 46.82-2.971 87.74-11.221 129.83-14.238 14.71-1.081 26.99-.672 37.46.935 35.74 5.528 41.94 6.94 30.33 24.38-11.6 17.346-19.78 19.554-4.09 32.361 13.43 11.084 56.88 2.366 45.69 17.564-16.23 22.089-24.11 34.198-42.85 45.964"/><path stroke="#fff" stroke-miterlimit="10" stroke-width=".635" d="M753.962 210.98s33.961-10.205 66.196-15.819c18.868-3.302 30.086-4.128 51.217-5.708 26.527-2.012 52.036-3.958 76.889-1.658 3.103.311 6.034.765 8.831 1.175 51.175 8.246 11.199 27.501 48.095 30.727 33.5 2.92 74-1.601 100.16 2.906 5.71.958 9.76 2.366 11.37 4.474 7.66 9.71 6.33 20.574-1.24 31.003-1.37 1.934-3.23 4.203-6.13 6.632-15.19 13.51-33.17 26.61-17.26 36.715 13.23 8.344 36.42 8.026 70.56 6.003 22.52-1.328 46.51-4.36 74.43-6.121 1.74-.127 3.48-.161 5.22-.289 47.15-3.163 88.49-11.375 129.85-14.331 14.72-1.081 27.13-.628 37.3 1.078 35.26 5.769 41.14 7.374 29.2 25.006-12.06 17.495-20.24 19.703-4.26 32.504 13.99 11.166 58.05 2.25 46.99 17.492-15.73 21.754-23.21 33.995-42.2 45.579"/><path stroke="#fff" stroke-miterlimit="10" stroke-width=".635" d="M775.33 211.954s33.366-10.101 65.924-15.907c18.886-3.396 30.869-4.47 52.035-6.236 26.698-2.155 52.36-4.15 76.601-1.652 3.102.311 6.034.765 8.677 1.224 50.973 8.576 10.517 28.073 46.323 31.739 32.27 3.316 73.07-1.21 98.82 3.166 5.71.957 9.62 2.321 11.1 4.385 7.52 9.666 6.65 20.382-.73 30.574-1.37 1.934-3.21 4.11-5.98 6.584-14.54 13.125-32.08 26.169-16.17 36.274 13.23 8.344 36.4 8.119 70.55 6.096 22.38-1.372 46.22-4.354 74.44-6.214 1.75-.127 3.63-.211 5.38-.338 47.62-3.406 89.1-11.573 129.87-14.425 14.69-.988 26.97-.579 37.41 1.215 35.07 6.006 40.47 7.853 28.09 25.54-12.52 17.643-20.71 19.945-4.29 32.691 14.55 11.248 59.09 2.09 48.01 17.425-15.24 21.418-22.6 33.797-41.55 45.195"/><path stroke="#fff" stroke-miterlimit="10" stroke-width=".635" d="M796.274 212.889s32.772-9.996 65.518-16.038c18.904-3.49 31.67-4.904 52.7-6.715 26.868-2.298 52.53-4.293 76.466-1.695 3.237.354 6.016.858 8.659 1.317 50.743 8.999 9.813 28.738 44.553 32.75 31.07 3.62 72.28-.868 97.62 3.469 5.57.913 9.48 2.278 10.96 4.342 7.38 9.622 6.68 20.194-.08 30.189-1.22 1.885-3.07 4.061-5.68 6.484-13.89 12.74-31.15 25.779-14.79 35.829 13.38 8.294 36.38 8.212 70.54 6.096 22.23-1.322 46.22-4.354 74.46-6.307 1.75-.128 3.64-.211 5.38-.339 47.95-3.598 89.72-11.771 129.89-14.518 14.7-.987 27.11-.535 37.39 1.309 34.89 6.242 39.81 8.331 26.97 26.166-12.82 17.743-21.18 20.187-4.3 32.785 14.97 11.286 60.12 1.929 49.31 17.353-14.74 21.082-21.7 33.592-41.06 44.859"/><path stroke="#fff" stroke-miterlimit="10" stroke-width=".635" d="M816.656 213.743s32.331-9.941 65.112-16.17c18.921-3.583 32.316-5.289 53.517-7.243 26.904-2.484 52.854-4.485 76.335-1.739 3.23.355 6.01.858 8.5 1.367 50.54 9.329 8.98 29.359 42.63 33.811 30 3.967 71.35-.478 96.27 3.728 5.58.913 9.49 2.278 10.99 4.249 7.24 9.578 6.85 20.051.56 29.804-1.06 1.835-2.91 4.011-5.52 6.435-13.27 12.448-30.06 25.338-13.71 35.388 13.54 8.245 36.37 8.306 70.53 6.19 22.1-1.367 46.07-4.305 74.48-6.401l5.24-.382c48.43-3.84 90.33-11.97 130.04-14.568 14.7-.987 27.1-.441 37.38 1.402 34.56 6.435 39.01 8.765 25.84 26.794-13.28 17.89-21.64 20.335-4.34 32.97 15.53 11.369 61.16 1.77 50.47 17.331-14.25 20.747-20.93 33.345-40.41 44.474"/><path stroke="#fff" stroke-miterlimit="10" stroke-width=".635" d="M836.771 214.509s31.871-9.793 64.705-16.301c18.804-3.721 33.1-5.631 54.182-7.721 27.074-2.628 53.162-4.585 76.332-1.74 3.08.405 5.86.908 8.64 1.411 50.18 9.708 8.15 29.98 40.85 34.823 28.8 4.269 70.57-.137 94.94 3.987 5.57.913 9.35 2.234 10.85 4.205 7.11 9.534 7.17 19.859 1.21 29.419-1.07 1.835-2.76 3.962-5.22 6.336-12.61 12.063-28.83 24.942-12.33 34.943 13.4 8.201 36.35 8.399 70.51 6.283 21.95-1.317 46.07-4.305 74.5-6.494 1.75-.128 3.5-.255 5.4-.433 48.88-3.988 90.94-12.167 130.05-14.66 14.84-.944 27.1-.442 37.35 1.588 34.37 6.671 38.19 9.294 24.58 27.377-13.74 18.039-22.12 20.577-4.51 33.114 15.95 11.406 62.19 1.609 51.64 17.214-13.6 20.362-20.19 33.19-39.77 44.089"/><path stroke="#fff" stroke-miterlimit="10" stroke-width=".635" d="M855.752 215.204s31.277-9.687 64.299-16.432c18.974-3.863 33.9-6.065 55-8.249 27.109-2.814 53.329-4.727 76.039-1.734 3.09.405 6 .952 8.49 1.461 50.11 10.081 7.6 30.595 38.95 35.791 27.59 4.572 69.63.253 93.59 4.246 5.44.869 9.22 2.19 10.58 4.117 6.98 9.49 7.21 19.672 1.86 29.034-1.05 1.742-2.61 3.912-5.07 6.286-12.12 11.729-27.74 24.503-11.23 34.503 13.55 8.151 36.33 8.492 70.49 6.376 21.81-1.36 45.91-4.255 74.51-6.587 1.75-.128 3.65-.305 5.4-.432 49.36-4.23 91.55-12.366 130.07-14.754 14.83-.944 27.23-.398 37.33 1.682 34.18 6.907 37.52 9.771 23.61 27.953-14.05 18.139-22.44 20.77-4.53 33.208 16.52 11.488 63.23 1.449 52.8 17.191-13.11 20.027-19.43 32.943-39.12 43.704"/><path stroke="#fff" stroke-miterlimit="10" stroke-width=".635" d="M873.88 215.823s30.836-9.633 64.029-16.521c18.991-3.956 34.547-6.449 55.817-8.776 27.284-2.958 53.654-4.92 75.904-1.778 3.09.405 5.85 1.001 8.47 1.554 49.76 10.46 6.77 31.217 37.03 36.852 26.51 4.919 68.85.595 92.4 4.456 5.44.869 9.08 2.146 10.44 4.073 6.84 9.447 7.54 19.48 2.51 28.649-1.05 1.742-2.45 3.863-4.76 6.188-11.34 11.387-26.81 24.111-9.86 34.056 13.7 8.102 36.31 8.586 70.63 6.421 21.65-1.312 45.76-4.206 74.53-6.681 1.75-.128 3.65-.305 5.4-.432 49.68-4.423 92.16-12.564 129.93-14.798 14.82-.851 27.22-.305 37.45 1.819 33.86 7.099 36.86 10.25 22.49 28.581-14.51 18.287-23.06 20.967-4.57 33.394 17.08 11.57 64.12 1.339 54.1 17.119-12.61 19.691-18.67 32.788-38.62 43.369"/><path stroke="#fff" stroke-miterlimit="10" stroke-width=".635" d="M890.854 216.464s30.242-9.527 63.623-16.652c19.009-4.049 35.329-6.79 56.483-9.254 27.31-3.144 53.82-5.063 75.77-1.822a81 81 0 0 1 8.32 1.604c49.55 10.79 5.93 31.838 35.25 37.864 25.31 5.221 67.92.985 91.06 4.714 5.16.875 8.95 2.103 10.31 4.03 6.55 9.452 7.71 19.337 3.15 28.264-.89 1.692-2.3 3.813-4.6 6.138-10.69 11.002-25.72 23.671-8.78 33.616 13.86 8.053 36.45 8.63 70.48 6.47 21.52-1.355 45.61-4.156 74.55-6.774 1.9-.177 3.65-.305 5.55-.482 50.02-4.708 92.77-12.762 129.95-14.891 14.82-.85 27.21-.304 37.43 1.913 33.67 7.335 36.06 10.684 21.23 29.163-14.97 18.436-23.38 21.16-4.74 33.537 17.65 11.559 65.15 1.179 55.12 17.053-12.12 19.356-17.9 32.541-38.11 42.94"/><path stroke="#fff" stroke-miterlimit="10" stroke-width=".635" d="M906.425 216.948s29.647-9.423 63.216-16.783c19.027-4.144 36.129-7.225 57.299-9.783 27.49-3.287 54-5.205 75.64-1.865 3.06.498 5.69 1.05 8.32 1.603 49.18 11.169 5.38 32.454 33.48 38.876 24.23 5.568 67.13 1.326 89.85 5.017 5.15.876 8.81 2.059 10.17 3.986 6.42 9.409 7.9 19.101 3.8 27.88-.89 1.692-2.14 3.763-4.45 6.088-10.2 10.667-24.63 23.231-7.39 33.171 13.85 8.052 36.43 8.723 70.45 6.563 21.23-1.35 45.61-4.157 74.42-6.818 1.9-.177 3.65-.305 5.41-.526 50.35-4.901 93.37-12.866 130.11-14.941 14.81-.85 27.19-.211 37.25 2.056 33.49 7.572 35.4 11.162 20.26 29.741-15.42 18.584-23.99 21.358-4.61 33.674 18.21 11.641 66.18 1.019 56.42 16.98-11.62 19.021-17.01 32.337-37.46 42.555"/><path stroke="#fff" stroke-miterlimit="10" stroke-width=".635" d="M920.568 217.366s29.206-9.367 62.81-16.915c19.042-4.236 36.772-7.61 57.962-10.261 27.52-3.473 54.32-5.398 75.5-1.909 3.07.498 5.83 1.095 8.3 1.697 49.12 11.543 4.55 33.075 31.56 39.937 23.03 5.871 66.2 1.717 88.52 5.277 5.01.831 8.67 2.015 10.03 3.941 6.15 9.321 8.07 18.958 4.45 27.495-.74 1.643-2.13 3.67-4.28 5.945-9.55 10.282-23.55 22.792-6.31 32.731 14.01 8.003 36.41 8.817 70.44 6.657 21.08-1.3 45.45-4.107 74.43-6.912 1.9-.177 3.65-.304 5.42-.525 50.82-5.143 93.98-13.065 130.12-15.034 14.95-.807 27.33-.168 37.37 2.192 33.17 7.765 34.74 11.641 19.14 30.368-15.73 18.684-24.32 21.551-4.79 33.817 18.77 11.723 67.22.859 57.58 16.957-11.13 18.686-16.39 32.139-36.82 42.171"/><path stroke="#fff" stroke-miterlimit="10" stroke-width=".635" d="M933.003 217.725s28.611-9.262 62.403-17.046c19.084-4.423 37.564-7.951 58.784-10.789 27.55-3.66 54.49-5.541 75.35-1.859 3.06.498 5.67 1.144 8.14 1.746 48.76 11.922 4 33.69 29.66 40.905 21.96 6.218 65.41 2.058 87.17 5.536 5.01.831 8.67 2.015 9.76 3.854 6.01 9.277 8.24 18.815 5.1 27.11-.74 1.642-1.98 3.62-4.13 5.895-8.92 9.991-22.61 22.401-4.93 32.285 14.02 7.91 36.39 8.91 70.57 6.7 20.94-1.343 45.32-4.15 74.45-7.004 1.9-.177 3.8-.354 5.57-.575 51.15-5.336 94.59-13.263 130.14-15.128 14.8-.757 27.33-.167 37.36 2.286 32.97 8.001 34.06 12.119 17.87 30.951-16.18 18.832-24.92 21.749-4.67 33.954 19.2 11.762 68.26.7 58.89 16.885-10.64 18.351-15.5 31.935-36.32 41.835"/><path stroke="#fff" stroke-miterlimit="10" stroke-width=".635" d="M943.566 218.076s28.017-9.158 62.134-17.135c19.1-4.516 38.21-8.335 59.45-11.266 27.72-3.804 54.66-5.684 75.21-1.904q4.365.822 8.28 1.79c48.4 12.302 3.17 34.312 27.88 41.917 21.04 6.515 64.63 2.399 85.83 5.795 4.88.787 8.54 1.971 9.63 3.81 5.88 9.233 8.56 18.622 5.61 26.681-.59 1.593-1.98 3.621-3.82 5.797-8.28 9.605-21.39 22.004-3.85 31.844 14.18 7.86 36.38 9.004 70.43 6.75 20.78-1.294 45.16-4.101 74.46-7.098 1.9-.177 3.67-.398 5.57-.575 51.62-5.577 95.2-13.461 130.16-15.221 14.93-.713 27.31-.074 37.34 2.38 32.78 8.237 33.26 12.553 16.75 31.577-16.65 18.981-25.25 21.942-4.84 34.098 19.91 11.793 69.29.539 59.91 16.818-10.15 18.015-14.89 31.737-35.68 41.45"/><path stroke="#fff" stroke-miterlimit="10" stroke-width=".635" d="M952.152 218.278s27.575-9.102 61.728-17.265c19.11-4.61 39-8.77 60.26-11.795 27.77-3.99 54.83-5.827 75.08-1.947 3.05.591 5.66 1.237 8.13 1.84 48.19 12.63 2.62 34.926 25.96 42.978 19.83 6.818 63.69 2.789 84.64 6.004 4.88.787 8.4 1.927 9.49 3.766 5.59 9.239 8.6 18.436 6.25 26.296-.58 1.594-1.82 3.571-3.66 5.748-7.78 9.27-20.45 21.613-2.47 31.398 14.18 7.86 36.23 9.053 70.41 6.844 20.65-1.338 45.01-4.052 74.48-7.192 1.9-.177 3.67-.398 5.57-.575 51.94-5.769 95.81-13.659 130.31-15.27 14.93-.714 27.45-.03 37.3 2.566 32.6 8.473 32.61 13.031 15.79 32.155-16.96 19.08-25.71 22.09-5.02 34.24 20.33 11.832 70.18.429 61.22 16.746-9.65 17.68-14.12 31.489-35.04 41.065"/><path stroke="#fff" stroke-miterlimit="10" stroke-width=".635" d="M958.578 218.477s27.116-8.954 61.162-17.348c19.14-4.703 39.79-9.111 61.09-12.322 27.93-4.133 54.86-6.013 74.94-1.991 3.05.591 5.66 1.237 8.11 1.933 47.84 13.01 2.07 35.542 24.19 43.99 18.76 7.165 62.91 3.13 83.3 6.263 4.74.744 8.26 1.883 9.35 3.722 5.46 9.196 8.92 18.244 6.91 25.912-.44 1.543-1.67 3.521-3.37 5.648-7.13 8.885-19.36 21.174-1.37 30.959 14.33 7.81 36.36 9.096 70.38 6.936 20.5-1.288 45.02-4.051 74.5-7.284 1.91-.178 3.67-.398 5.59-.669 52.42-6.012 96.27-13.808 130.33-15.364 14.93-.713 27.3.02 37.29 2.66 32.27 8.666 31.93 13.51 14.52 32.738s-26.19 22.332-4.89 34.377c20.88 11.914 71.07.225 62.36 16.723-9.29 17.301-13.22 31.286-34.38 40.681"/><path stroke="#fff" stroke-miterlimit="10" stroke-width=".635" d="M962.734 218.534s26.522-8.849 60.756-17.479c19.31-4.846 40.44-9.496 61.75-12.801 27.97-4.319 55.04-6.156 74.81-2.035 2.89.641 5.5 1.287 7.96 1.983 47.76 13.383 1.23 36.163 22.41 45.001 17.7 7.512 61.98 3.521 82.1 6.566 4.74.744 8.13 1.84 9.08 3.635 5.32 9.152 9.09 18.101 7.55 25.527-.43 1.543-1.65 3.428-3.21 5.598-6.64 8.55-18.27 20.734 0 30.513 14.49 7.761 36.34 9.19 70.52 6.981 20.37-1.333 44.86-4.002 74.52-7.378 1.77-.221 3.82-.448 5.59-.669 52.74-6.204 97.02-13.962 130.35-15.457 14.91-.62 27.43.063 37.26 2.753 32.09 8.902 31.28 13.988 13.4 33.365-17.87 19.377-26.64 22.48-5.06 34.52 21.46 11.902 72.11.065 63.54 16.607-8.8 16.965-12.61 31.088-33.89 40.345"/><path stroke="#fff" stroke-miterlimit="10" stroke-width=".635" d="M964.156 218.599s137.454-46.343 197.574-32.925c60.27 13.37 7.58 38.318 28.45 48.046 20.73 9.684 84.52 1.308 89.7 10.416 5.18 9.107 9.28 17.864 8.2 25.141-1.09 7.278-25.08 23.287-1.82 35.573 22.97 12.291 64.83 9 144.91-.442s141.28-22.417 173.18-13.279 30.47 14.422 12.43 33.942c-18.33 19.526-27.12 22.722-5.1 34.707 22.03 11.984 73-.045 64.69 16.584-8.3 16.63-11.7 30.884-33.24 39.961"/></svg>